<svg width="122" height="122" viewBox="0 0 122 122" fill="none" xmlns="http://www.w3.org/2000/svg">
<circle cx="61" cy="61" r="60" stroke="#DA2A2A" stroke-width="2"/>
<path d="M62.4438 59.7968H63.2755C63.5048 59.7968 63.6909 59.9836 63.6909 60.213C63.6909 60.4423 63.5048 60.6292 63.2755 60.6292H61.0037C60.4376 60.6292 59.9797 61.0879 59.9797 61.6532C59.9797 62.2192 60.4384 62.6771 61.0037 62.6771H61.8353V63.2717C61.8353 63.8378 62.294 64.2957 62.8593 64.2957C63.4253 64.2957 63.8832 63.837 63.8832 63.2717V62.5984C64.9481 62.3258 65.7388 61.3621 65.7388 60.2131C65.7388 58.854 64.633 57.7474 63.2747 57.7474H62.443C62.2137 57.7474 62.0268 57.5605 62.0268 57.3311C62.0268 57.1018 62.2137 56.9149 62.443 56.9149H64.7132C65.2793 56.9149 65.7372 56.4562 65.7372 55.891C65.7372 55.3249 65.2785 54.867 64.7132 54.867H63.8816V54.2739C63.8816 53.7079 63.4229 53.25 62.8576 53.25C62.2916 53.25 61.8337 53.7087 61.8337 54.2739V54.9473C60.7688 55.2199 59.9773 56.1852 59.9773 57.3326C59.9781 58.6909 61.0839 59.7967 62.4438 59.7967L62.4438 59.7968Z" fill="#AD0000"/>
<path d="M63.3761 68.035C67.7212 68.035 71.2572 64.499 71.2572 60.1538C71.2572 55.8079 67.7228 52.2727 63.3761 52.2727C59.0302 52.2727 55.495 55.8087 55.495 60.1538C55.495 64.4997 59.031 68.035 63.3761 68.035ZM63.3761 54.3221C66.5925 54.3221 69.2078 56.9383 69.2078 60.1554C69.2078 63.3723 66.5917 65.9871 63.3761 65.9871C60.1598 65.9871 57.5444 63.371 57.5444 60.1554C57.5436 56.9391 60.1598 54.3221 63.3761 54.3221Z" fill="#AD0000"/>
<path d="M60.2051 31.2299H61.0499C61.2924 31.2299 61.4885 31.4268 61.4885 31.6693C61.4885 31.9118 61.2916 32.1087 61.0499 32.1087L58.7417 32.1095C58.1757 32.1095 57.7178 32.5682 57.7178 33.1334C57.7178 33.6995 58.1765 34.1574 58.7417 34.1574H59.6027V34.7775C59.6027 35.3435 60.0614 35.8014 60.6267 35.8014C61.1927 35.8014 61.6506 35.3427 61.6506 34.7775V34.081C62.7325 33.8107 63.5356 32.8331 63.5356 31.6702C63.5356 30.2987 62.4198 29.1813 61.0483 29.1813H60.2035C59.9611 29.1813 59.7642 28.9844 59.7642 28.7419C59.7642 28.4994 59.9611 28.3025 60.2035 28.3025H62.5109C63.077 28.3025 63.5349 27.8438 63.5349 27.2786C63.5349 26.7125 63.0762 26.2546 62.5109 26.2546H61.6499V25.6345C61.6499 25.0685 61.1912 24.6106 60.626 24.6106C60.0599 24.6106 59.602 25.0693 59.602 25.6345V26.3311C58.5201 26.6013 57.717 27.579 57.717 28.7418C57.7163 30.1133 58.8321 31.2299 60.2051 31.2299V31.2299Z" fill="#AD0000"/>
<path d="M52.4242 30.2039C52.4242 34.7284 56.1053 38.4079 60.6281 38.4079C65.1526 38.4079 68.8321 34.7268 68.8321 30.2039C68.8321 25.6803 65.151 22 60.6281 22C56.1045 21.9992 52.4242 25.6795 52.4242 30.2039ZM60.6281 24.047C64.022 24.047 66.7843 26.8077 66.7843 30.2032C66.7843 33.597 64.0236 36.3593 60.6281 36.3593C57.2343 36.3593 54.472 33.5986 54.472 30.2032C54.4728 26.8093 57.2343 24.047 60.6281 24.047Z" fill="#AD0000"/>
<path d="M74.9782 47.6653H73.2037V46.4429C74.6315 46.2869 75.7473 45.0738 75.7473 43.6043V42.1086C75.7473 40.5332 74.4662 39.2522 72.8909 39.2522H48.3601C46.7848 39.2522 45.5038 40.5341 45.5038 42.1086V43.6043C45.5038 45.0746 46.6196 46.2877 48.0498 46.4429V47.6653H46.2752C42.3431 47.6653 39.1439 50.8646 39.1439 54.7966V84.313C39.1439 88.2452 42.3433 91.4443 46.2752 91.4443H74.9772C78.9093 91.4443 82.1085 88.245 82.1085 84.313V54.7966C82.1085 50.8644 78.9099 47.6653 74.978 47.6653H74.9782ZM47.5533 43.6042V42.1085C47.5533 41.6621 47.9155 41.3 48.3618 41.3H72.8926C73.3374 41.3 73.7011 41.6621 73.7011 42.1085V43.6042C73.7011 44.049 73.3389 44.4112 72.8926 44.4112H48.3618C47.9139 44.412 47.5525 44.0498 47.5525 43.6042H47.5533ZM71.155 46.4606V47.6653H50.0995V46.4606H71.155ZM80.0609 84.3134C80.0609 87.115 77.7806 89.3961 74.9782 89.3961L46.2763 89.3953C43.4747 89.3953 41.1936 87.115 41.1936 84.3126V54.7962C41.1936 51.9946 43.4739 49.7135 46.2763 49.7135H74.9782C77.7798 49.7135 80.0609 51.9938 80.0609 54.7962V84.3134Z" fill="#AD0000"/>
<path d="M78.1136 78.0539C78.1136 76.7311 77.0379 75.6546 75.7143 75.6546H75.3367C75.3537 75.5403 75.3653 75.4245 75.3653 75.3048C75.3653 73.982 74.2896 72.9055 72.966 72.9055H62.0006C60.6778 72.9055 59.6012 73.9812 59.6012 75.3048C59.6012 76.6276 60.6769 77.7041 62.0006 77.7041H62.3782C62.3612 77.8184 62.3496 77.9343 62.3496 78.0539C62.3496 78.1721 62.362 78.2887 62.3782 78.403H59.7743C58.4515 78.403 57.3749 79.4787 57.3749 80.8023C57.3749 80.9382 57.3896 81.0702 57.4105 81.2C56.3178 81.4239 55.4923 82.3922 55.4923 83.5506C55.4923 84.8734 56.568 85.95 57.8916 85.95H62.3781C62.3611 86.0642 62.3495 86.1801 62.3495 86.2998C62.3495 87.6225 63.4252 88.6991 64.7488 88.6991H75.7142C77.037 88.6991 78.1135 87.6234 78.1135 86.2998C78.1135 84.9777 77.0379 83.902 75.7142 83.9004H71.2278C71.2448 83.7862 71.2563 83.6703 71.2563 83.5506C71.2563 83.4147 71.2417 83.2827 71.2208 83.153C72.3143 82.929 73.139 81.9607 73.139 80.8023C73.139 80.6826 73.1266 80.5675 73.1104 80.4525H75.7151C77.0379 80.4517 78.1136 79.376 78.1136 78.054V78.0539ZM62.0023 75.6554C61.81 75.6554 61.6525 75.4979 61.6525 75.3056C61.6525 75.1133 61.81 74.9558 62.0023 74.9558H72.9677C73.16 74.9558 73.3175 75.1133 73.3175 75.3056C73.3175 75.4979 73.1599 75.6554 72.9677 75.6554H62.0023ZM59.7759 80.4517H64.7388C64.7435 80.4517 64.7465 80.4524 64.7512 80.4524H70.7482C70.9389 80.4555 71.0926 80.6107 71.0926 80.8022C71.0926 80.9945 70.935 81.152 70.7428 81.152H68.864H68.8593H59.7735C59.582 81.1513 59.426 80.9945 59.426 80.8022C59.426 80.6092 59.582 80.4517 59.7758 80.4517L59.7759 80.4517ZM57.8925 83.8995C57.7002 83.8995 57.5427 83.742 57.5427 83.5497C57.5427 83.3574 57.7002 83.1999 57.8925 83.1999H59.7713H59.7759H68.8602C69.0525 83.2007 69.2077 83.3574 69.2077 83.5497C69.2077 83.742 69.0517 83.8987 68.8602 83.8995H64.7497H64.7451H57.8925ZM75.715 85.9481C75.9073 85.9481 76.0649 86.1056 76.0649 86.2979C76.0649 86.4902 75.9073 86.6477 75.715 86.6477H64.7496C64.5574 86.6477 64.3998 86.4902 64.3998 86.2979C64.3998 86.1056 64.5558 85.9489 64.7473 85.9481H68.8578H68.8624H75.715ZM70.7522 78.4036C70.7475 78.4036 70.7444 78.4029 70.7398 78.4029H64.7428C64.5521 78.3998 64.3984 78.2446 64.3984 78.0538C64.3984 77.8616 64.5559 77.704 64.7482 77.704H75.7136C75.9059 77.704 76.0634 77.8616 76.0634 78.0538C76.0634 78.2461 75.9059 78.4036 75.7136 78.4036H70.7522Z" fill="#AD0000"/>
<path d="M44.1571 66.9575L54.1649 71.441C54.4761 71.5808 54.8059 71.651 55.1449 71.651C56.0893 71.651 56.948 71.0943 57.3348 70.2332C57.8754 69.0263 57.334 67.6054 56.1271 67.0642L46.1193 62.5806C45.8081 62.4409 45.4783 62.3706 45.1393 62.3706C44.1949 62.3706 43.3347 62.9274 42.9494 63.7884C42.6868 64.3729 42.669 65.0247 42.8976 65.6224C43.1247 66.2224 43.5725 66.6957 44.1571 66.9575L44.1571 66.9575ZM44.8181 64.6262C44.8869 64.4733 45.0328 64.4192 45.1378 64.4192C45.1865 64.4192 45.2344 64.4293 45.2799 64.4501L55.2862 68.9336C55.4622 69.0124 55.541 69.2201 55.4622 69.3954C55.3935 69.5483 55.2475 69.6023 55.1425 69.6023C55.0939 69.6023 55.046 69.5923 55.0004 69.5715L44.9926 65.0879C44.8775 65.037 44.8289 64.9443 44.8088 64.8941C44.7918 64.8432 44.7664 64.7412 44.8181 64.6262L44.8181 64.6262Z" fill="#AD0000"/>
<path d="M56.5935 77.6209C56.1719 76.8525 55.3657 76.3768 54.49 76.3768C54.0892 76.3768 53.69 76.4795 53.3378 76.6726L43.7246 81.9476C43.1632 82.2565 42.7547 82.7646 42.5763 83.3793C42.3972 83.9948 42.4682 84.6426 42.7763 85.204C43.1972 85.9724 44.0041 86.4481 44.8799 86.4481C45.2807 86.4481 45.6791 86.3454 46.032 86.1523L55.6453 80.8773C56.8043 80.241 57.2298 78.78 56.5935 77.6208V77.6209ZM54.6591 79.0811L45.0459 84.3561C44.9942 84.3847 44.9378 84.3994 44.8791 84.3994C44.7787 84.3994 44.6444 84.3515 44.571 84.2164C44.51 84.106 44.527 84.0025 44.5424 83.9507C44.5579 83.899 44.5988 83.8025 44.7092 83.7415L54.3225 78.4664C54.3742 78.4379 54.4306 78.4232 54.4893 78.4232C54.5896 78.4232 54.7225 78.4711 54.7974 78.6046C54.8908 78.7753 54.8283 78.9892 54.6591 79.0811V79.0811Z" fill="#AD0000"/>
</svg>
