<svg width="122" height="122" viewBox="0 0 122 122" fill="none" xmlns="http://www.w3.org/2000/svg">
<circle cx="61" cy="61" r="60" stroke="#DA2A2A" stroke-width="2"/>
<path d="M70.291 49.0366L75.4606 44.1384L76.514 45.25L71.3444 50.1481L70.291 49.0366Z" fill="#CE0000"/>
<path d="M44.9619 82.4594H46.4933V86.2117H44.9619V82.4594Z" fill="#CE0000"/>
<path d="M59.1287 38.9641V55.2748L49.4034 64.9996L49.4797 65.076L32.7861 65.0765L24.2861 73.0402V90.423H46.0338L54.5338 82.3823V65.0761H51.5473L60.277 56.3464H62.4211L57.4439 61.2473L58.516 62.3193L64.5652 56.3464H78.4256L75.7451 59.0268L76.8172 60.0989L80.5695 56.3465H80.8756L89.3756 48.3828L89.3761 31H67.6284L59.1287 38.9641ZM33.399 66.6081H51.7774L45.4215 72.6574H27.0432L33.399 66.6081ZM45.4213 88.8918H25.8177V74.1126H44.9618V80.5449H46.4932V73.7296L53.0024 67.527V81.7702L45.4213 88.8918ZM80.2635 54.8154H66.1734L68.8539 52.1349L67.7818 51.0629L63.953 54.8152H60.66V40.036H79.804V46.4683H81.3354V39.653L87.8447 33.5268V47.6934L80.2635 54.8154ZM86.6957 32.5316L80.2635 38.5809H61.8852L68.3174 32.5316H86.6957Z" fill="#CE0000"/>
<path d="M79.8043 48.3831H81.3357V52.1354H79.8043V48.3831Z" fill="#CE0000"/>
<path d="M50.9485 47.2097L54.7928 43.3655L55.8755 44.4482L52.0312 48.2925L50.9485 47.2097Z" fill="#CE0000"/>
<path d="M42.9669 55.0067L48.9559 49.0835L50.0327 50.1726L44.0438 56.0958L42.9669 55.0067Z" fill="#CE0000"/>
<path d="M36.4265 61.4281L39.7473 58.1431L40.8247 59.2317L37.5039 62.5167L36.4265 61.4281Z" fill="#CE0000"/>
<path d="M62.9479 71.8465L72.9109 61.8835L73.9936 62.9663L64.0306 72.9293L62.9479 71.8465Z" fill="#CE0000"/>
<path d="M56.4416 78.2846L59.0947 75.6315L60.1774 76.7142L57.5243 79.3673L56.4416 78.2846Z" fill="#CE0000"/>
<path d="M41.3629 46.698V38.7344H33.3992L29.2639 42.8692V50.8334H37.2275L41.3629 46.698ZM37.6874 48.2294V43.4818L39.8315 41.3377V46.0853L37.6874 48.2294ZM34.0119 40.2658H38.7595L36.6153 42.4099H31.8677L34.0119 40.2658ZM30.7957 43.9413H36.1559V49.3015H30.7957V43.9413Z" fill="#CE0000"/>
<path d="M70.5385 74.4956V82.4592H78.5022L82.637 78.3244L82.6376 70.437H74.6739L70.5385 74.4956ZM72.0704 75.5676H77.4307V80.9278H72.0704V75.5676ZM78.962 79.8557V75.1081L81.1062 72.964V77.7116L78.962 79.8557ZM80.0341 71.9684L77.8899 74.1125H73.1424L75.2865 71.9684H80.0341Z" fill="#CE0000"/>
</svg>
