<svg width="122" height="122" viewBox="0 0 122 122" fill="none" xmlns="http://www.w3.org/2000/svg">
<circle cx="61" cy="61" r="60" stroke="#DA2A2A" stroke-width="2"/>
<path d="M90.4957 55.3119L80.3548 49.7802V42.6132C80.3548 42.0792 79.9223 41.6455 79.3871 41.6455H72.6129V37.7745C72.6129 37.4203 72.4193 37.0941 72.1087 36.9247L61.4635 31.1183C61.1762 30.9606 60.825 30.9606 60.5373 31.1183L49.8921 36.9247C49.5806 37.0941 49.3871 37.4203 49.3871 37.7745V41.6455H42.6129C42.0776 41.6455 41.6451 42.0792 41.6451 42.6132V49.7802L31.5042 55.3119C31.1935 55.4812 31 55.8074 31 56.1617V65.8391C31 66.1934 31.1935 66.5195 31.5042 66.6889L42.1493 72.4954C42.2936 72.5736 42.4531 72.6133 42.6129 72.6133C42.7728 72.6133 42.9322 72.5736 43.0765 72.4954L53.7216 66.6889C54.0323 66.5196 54.2258 66.1934 54.2258 65.8391V56.1617C54.2258 55.8074 54.0323 55.4812 53.7216 55.3119L43.5807 49.7802V43.581H49.3871V47.4519C49.3871 47.8062 49.5807 48.1324 49.8913 48.3017L60.5365 54.1082C60.6808 54.1864 60.8402 54.2261 61 54.2261C61.1599 54.2261 61.3193 54.1864 61.4636 54.1082L72.1088 48.3017C72.4194 48.1324 72.613 47.8062 72.613 47.4519V43.581H78.4194V49.7802L68.2785 55.3119C67.9678 55.4812 67.7743 55.8074 67.7743 56.1617V65.8391C67.7743 66.1934 67.9678 66.5195 68.2785 66.6889L78.9236 72.4954C79.0679 72.5736 79.2273 72.6133 79.3872 72.6133C79.547 72.6133 79.7065 72.5736 79.8508 72.4954L90.4959 66.6889C90.8065 66.5196 91.0001 66.1934 91.0001 65.8391V56.1617C91.0001 55.8074 90.8065 55.4812 90.4959 55.3119H90.4957ZM32.9356 57.7913L41.6452 62.5419V70.0146L32.9356 65.264V57.7913ZM43.5807 70.0147V62.542L52.2904 57.7914V65.2641L43.5807 70.0147ZM51.2375 56.1611L42.613 60.8654L33.9885 56.1611L41.6452 51.9851V54.2256H43.5807V51.9851L51.2375 56.1611ZM61.0001 33.0691L69.6246 37.7734L61.0001 42.4777L52.3756 37.7734L61.0001 33.0691ZM51.3227 43.5799H53.2581V41.6444H51.3227V39.403L60.0323 44.1535V51.6263L51.3227 46.8757V43.5799ZM70.6775 46.8758L61.9678 51.6264V44.1537L70.6775 39.4031V41.6445H68.742V43.58H70.6775V46.8758ZM78.4194 51.9845V54.225H80.3549V51.9845L88.0117 56.1605L79.3872 60.8648L70.7627 56.1605L78.4194 51.9845ZM69.7098 57.7901L78.4194 62.5406V70.0134L69.7098 65.2628V57.7901ZM80.3549 70.0135V62.5408L89.0646 57.7902V65.2629L80.3549 70.0135Z" fill="#DA2A2A"/>
<path d="M78.4195 78.4194H72.613V74.5484C72.613 74.1942 72.4195 73.868 72.1088 73.6986L61.4637 67.8922C61.1764 67.7345 60.8251 67.7345 60.5374 67.8922L49.8922 73.6986C49.5807 73.868 49.3872 74.1942 49.3872 74.5484V78.4194H43.5807V74.5484H41.6453V79.3872C41.6453 79.9211 42.0777 80.3549 42.613 80.3549H49.3872V84.2259C49.3872 84.5801 49.5807 84.9063 49.8914 85.0757L60.5365 90.8821C60.6808 90.9603 60.8403 91.0001 61.0001 91.0001C61.16 91.0001 61.3194 90.9603 61.4637 90.8821L72.1088 85.0757C72.4195 84.9063 72.613 84.5801 72.613 84.2259V80.3549H79.3872C79.9225 80.3549 80.3549 79.9211 80.3549 79.3872V74.5484H78.4195V78.4194ZM61.0001 69.8441L69.6246 74.5484L61.0001 79.2528L52.3756 74.5484L61.0001 69.8441ZM51.3227 80.3549H53.2582V78.4194H51.3227V76.178L60.0324 80.9286V88.4013L51.3227 83.6508V80.3549ZM70.6775 83.6509L61.9678 88.4014V80.9287L70.6775 76.1781V78.4195H68.742V80.355H70.6775V83.6509Z" fill="#DA2A2A"/>
</svg>
