<svg width="122" height="122" viewBox="0 0 122 122" fill="none" xmlns="http://www.w3.org/2000/svg">
<circle cx="61" cy="60.9999" r="60" stroke="#DA2A2A" stroke-width="2"/>
<path d="M87.842 30.6951L55.2051 27.0871C54.3414 26.9895 53.4726 27.2149 52.7651 27.7199C52.0575 28.2254 51.562 28.9742 51.374 29.8229L29.3047 31.3345C28.365 31.3981 27.4901 31.8328 26.8719 32.5431C26.2531 33.2529 25.9429 34.1791 26.0087 35.1181L28.9046 77.4656C28.9654 78.3617 29.3643 79.2014 30.0205 79.8146C30.6767 80.4284 31.5415 80.7693 32.44 80.7693H32.6878L45.3908 79.8972C48.5123 84.3699 53.6969 86.9445 59.1468 86.7274C64.5966 86.5104 69.5604 83.5319 72.3163 78.8253L82.4113 79.9296C82.5419 79.9374 82.673 79.9374 82.8036 79.9296C83.683 79.9296 84.5311 79.6015 85.1817 79.01C85.8328 78.418 86.2396 77.605 86.3233 76.7295L90.9786 34.6064C91.0818 33.6717 90.8095 32.7344 90.2214 32.0006C89.6333 31.2669 88.7772 30.7972 87.842 30.6951ZM42.9177 66.963L35.8302 67.4507C35.2795 67.4892 34.7394 67.6192 34.2311 67.8352L32.1432 37.1267L50.67 35.8545L48.1741 58.4438C45.5616 60.6528 43.7195 63.6368 42.9177 66.963ZM35.9345 68.9467L42.6297 68.4908C42.5382 69.2207 42.4958 69.9556 42.502 70.6909C42.5008 72.2628 42.733 73.8262 43.19 75.3301L36.4227 75.7937C35.5093 75.864 34.6065 75.5672 33.9135 74.9685C33.2211 74.3692 32.797 73.5183 32.7351 72.6049C32.6732 71.6909 32.9789 70.7909 33.5843 70.104C34.1898 69.4165 35.0446 69.0002 35.9585 68.9467L35.9345 68.9467ZM32.5827 79.29C32.0414 79.3252 31.508 79.1449 31.0984 78.7878C30.6894 78.4313 30.4378 77.9274 30.3993 77.3862L27.5034 35.0145C27.466 34.4727 27.6457 33.9376 28.0028 33.5281C28.3599 33.1185 28.8649 32.8674 29.4072 32.8306L51.1652 31.343L50.8371 34.3427L31.3032 35.6785C31.1051 35.693 30.921 35.7851 30.791 35.9347C30.6643 36.087 30.599 36.2806 30.6068 36.4787L32.8148 68.7713C31.7875 69.7166 31.2101 71.0546 31.2268 72.4507C31.2435 73.8468 31.8528 75.1703 32.9029 76.0904C33.7873 76.8693 34.9239 77.3018 36.1023 77.3062H36.446L43.6451 76.8102C43.8828 77.3754 44.15 77.9289 44.4458 78.4663L32.5827 79.29ZM58.5002 85.2175C54.6452 85.2175 50.9474 83.6857 48.2216 80.9594C45.4959 78.2331 43.9648 74.5353 43.9653 70.6797C43.9664 66.8246 45.4986 63.1274 48.2255 60.4022C50.9524 57.6771 54.6502 56.1465 58.5058 56.1482C62.3609 56.1493 66.0575 57.6826 68.7827 60.4101C71.5073 63.1376 73.0367 66.8352 73.0351 70.691C73.0285 74.5428 71.4952 78.2354 68.7706 80.9584C66.046 83.6813 62.3524 85.213 58.5002 85.2175ZM74.1945 67.3877L79.6577 67.9959C80.561 68.0969 81.3879 68.5511 81.9566 69.2603C82.5246 69.9695 82.7885 70.8757 82.6898 71.7791C82.591 72.6841 82.1374 73.5128 81.4276 74.083C80.7178 74.6527 79.8112 74.9177 78.9061 74.819L74.1063 74.2911C74.6353 72.0229 74.6604 69.6666 74.1788 67.3878L74.1945 67.3877ZM79.7938 66.5078L73.7625 65.836C72.7302 62.5913 70.6947 59.7584 67.9489 57.7457C65.203 55.7331 61.8886 54.6445 58.4838 54.6366C57.1508 54.6333 55.8233 54.8001 54.5322 55.1327L56.9321 33.2619L84.7295 36.3336L81.3938 66.955C80.8989 66.7106 80.366 66.5538 79.8175 66.4907L79.7938 66.5078ZM89.4893 34.4394L84.8335 76.6354C84.7659 77.1816 84.4763 77.6766 84.0339 78.0036C83.6109 78.3445 83.0697 78.5029 82.5296 78.4432L73.0589 77.3954C73.3016 76.858 73.5148 76.3078 73.6984 75.7477L78.7219 76.3079H79.2737C80.513 76.3006 81.7055 75.8263 82.6115 74.9804C83.5176 74.1345 84.0728 72.9789 84.1661 71.7424C84.2587 70.5065 83.8832 69.2801 83.1138 68.3081C83.01 68.1719 82.89 68.0441 82.7778 67.9242L86.3456 35.7758C86.3735 35.3746 86.0812 35.022 85.6816 34.9756L56.3887 31.7119C55.9953 31.7064 55.6561 31.9881 55.5891 32.3759L52.9889 55.638C51.8674 56.0532 50.7944 56.5894 49.7895 57.2377L52.7574 30.4003C52.8679 29.3619 53.745 28.5746 54.789 28.5767C54.8638 28.5684 54.9386 28.5684 55.0134 28.5767L87.6588 32.1762C88.2029 32.2304 88.7028 32.5004 89.0471 32.9256C89.3914 33.3508 89.551 33.8959 89.4907 34.44L89.4893 34.4394Z" fill="#CE0000"/>
<path d="M49.9014 67.3624H65.3085L63.1407 69.5302C62.9978 69.6686 62.9175 69.8595 62.9175 70.0581C62.9175 70.2573 62.9978 70.4476 63.1407 70.5859C63.278 70.7305 63.4693 70.8119 63.6685 70.8102C63.87 70.8102 64.063 70.7293 64.2048 70.5859L67.6441 67.1466C67.7083 67.0835 67.7574 67.0071 67.7881 66.9222C67.8194 66.8464 67.8355 66.7649 67.8361 66.6823C67.84 66.6589 67.84 66.6343 67.8361 66.6103C67.8439 66.5467 67.8439 66.482 67.8361 66.4184V66.3464C67.7976 66.2644 67.7463 66.1885 67.6843 66.1226L64.2444 62.6827C64.1032 62.5415 63.9124 62.4623 63.7126 62.4623C63.5128 62.4623 63.3214 62.5415 63.1808 62.6827C63.038 62.8216 62.9571 63.0119 62.9571 63.2105C62.9571 63.4097 63.038 63.6 63.1808 63.7389L65.3408 65.9067H49.9022C49.6902 65.8844 49.4793 65.9536 49.3214 66.0959C49.1629 66.2387 49.0725 66.4418 49.0725 66.6544C49.0725 66.8676 49.1629 67.0701 49.3214 67.213C49.4793 67.3553 49.6902 67.4245 49.9022 67.4027L49.9014 67.3624Z" fill="#CE0000"/>
<path d="M67.1154 74.0105H51.7083L53.8682 71.8506H53.8676C54.0283 71.7156 54.1249 71.5191 54.1344 71.3093C54.1438 71.0995 54.0646 70.8953 53.9167 70.7463C53.7689 70.5973 53.5652 70.517 53.3554 70.5248C53.1456 70.5321 52.9486 70.6275 52.8119 70.7871L49.3641 74.2349V74.2343C49.305 74.2985 49.2564 74.371 49.2202 74.4508C49.209 74.5273 49.209 74.6054 49.2202 74.6824C49.2163 74.7092 49.2163 74.7359 49.2202 74.7627C49.2118 74.8235 49.2118 74.8855 49.2202 74.9463C49.2168 74.9703 49.2168 74.9948 49.2202 75.0183C49.2509 75.1031 49.3 75.1795 49.3641 75.2426L52.8119 78.6904C52.9241 78.8946 53.1244 79.0358 53.3549 79.0721C53.5853 79.1083 53.8191 79.0358 53.9887 78.8751C54.1578 78.715 54.2432 78.4851 54.2197 78.2529C54.1963 78.0208 54.0663 77.8133 53.8676 77.6905L51.7077 75.5306H67.1148C67.53 75.5306 67.8664 75.1941 67.8664 74.7784C67.8664 74.3633 67.53 74.0268 67.1148 74.0268L67.1154 74.0105Z" fill="#CE0000"/>
<path d="M69.1715 46.7889C69.1929 46.7943 69.2147 46.797 69.2369 46.7971C69.7786 46.8656 70.198 47.2332 70.1506 47.6082C70.1032 47.9832 69.6055 48.235 69.0638 48.1665C68.6373 48.118 68.2368 47.9361 67.9197 47.6468C67.7271 47.4353 67.4001 47.4183 67.1864 47.6087C67.0757 47.6981 67.0055 47.8283 66.9922 47.9703C66.9789 48.112 67.0234 48.2532 67.1155 48.3618C67.473 48.7259 67.9189 48.9907 68.4097 49.1303L68.3345 49.7257C68.2983 50.0117 68.5011 50.2731 68.7871 50.3092C69.0731 50.3454 69.3344 50.1426 69.3706 49.8566L69.4458 49.2612C69.8655 49.2524 70.2688 49.0973 70.5863 48.8226C70.904 48.5481 71.1153 48.1711 71.1844 47.7569C71.2023 47.2607 71.0263 46.7769 70.6932 46.4083C70.3604 46.0398 69.8969 45.8157 69.4014 45.7833L69.336 45.775C68.7943 45.7066 68.3757 45.3331 68.4224 44.9639C68.469 44.5947 68.9681 44.3314 69.5098 44.3998L69.5096 44.3998C69.9378 44.4455 70.3395 44.6302 70.653 44.9253C70.8483 45.1388 71.1794 45.1536 71.3928 44.9583C71.4954 44.8646 71.5565 44.7341 71.5627 44.5953C71.5688 44.4567 71.5195 44.3211 71.4258 44.2185C71.0709 43.8515 70.624 43.5863 70.1317 43.45L70.2069 42.8546C70.243 42.5686 70.0406 42.3073 69.7546 42.2711C69.4683 42.235 69.2072 42.4377 69.171 42.7237L69.0958 43.3191C68.6828 43.3288 68.2859 43.4798 67.9712 43.7474C67.6566 44.0149 67.4435 44.3825 67.3676 44.7885C67.3408 45.2931 67.516 45.7876 67.8545 46.1628C68.193 46.5379 68.6668 46.7634 69.1715 46.7888L69.1715 46.7889Z" fill="#CE0000"/>
<path d="M68.3591 53.6485C70.311 53.8952 72.2807 53.3563 73.8355 52.1508C75.39 50.9451 76.4019 49.1713 76.6486 47.2194C76.8953 45.2676 76.3564 43.2978 75.1508 41.7433C73.9449 40.1885 72.1711 39.1766 70.2193 38.9299C68.2677 38.6833 66.2977 39.2221 64.7431 40.428C63.1886 41.6336 62.1767 43.4075 61.93 45.3593C61.6867 47.3105 62.2268 49.2785 63.4317 50.8324C64.6369 52.3862 66.4088 53.3988 68.3591 53.6485ZM70.0816 40.0195L70.0815 40.0198C71.7444 40.2299 73.2558 41.092 74.2828 42.4162C75.3101 43.7407 75.7691 45.4188 75.559 47.0817C75.3488 48.7445 74.4868 50.2556 73.1623 51.2827C71.8381 52.31 70.1597 52.769 68.4968 52.5588C66.8342 52.3487 65.3229 51.4866 64.2958 50.1621C63.2685 48.8379 62.8095 47.1598 63.0197 45.4969C63.2313 43.8348 64.0938 42.3245 65.4178 41.2977C66.7417 40.2709 68.4193 39.8113 70.0816 40.0197L70.0816 40.0195Z" fill="#CE0000"/>
</svg>
