<svg width="266" height="356" viewBox="0 0 266 356" fill="none" xmlns="http://www.w3.org/2000/svg">
<path d="M169.458 176L211.016 147.5" stroke="#202932"/>
<path d="M68.5 232L122.5 198" stroke="#202932"/>
<g opacity="0.87">
<path d="M160.446 209L172.963 248" stroke="#202932"/>
<g opacity="0.87">
<path opacity="0.87" d="M173.189 263.616L206.809 243.603L216.469 281.412L182.946 301.424L173.189 263.616Z" stroke="#202932" stroke-width="2"/>
<path opacity="0.87" d="M171.191 263.876L180.846 301.291L153.542 290.171L143.886 252.756L171.191 263.876Z" stroke="#202932" stroke-width="2"/>
<path opacity="0.87" d="M171.95 262.026L144.656 250.91L177.817 231.114L205.206 242.23L171.95 262.026Z" stroke="#202932" stroke-width="2"/>
</g>
</g>
<g opacity="0.87">
<g opacity="0.87">
<g opacity="0.87">
<g opacity="0.87">
<path opacity="0.87" d="M221.158 132.584L254.778 112.572L264.438 150.381L230.915 170.393L221.158 132.584Z" stroke="#202932" stroke-width="2"/>
</g>
<g opacity="0.87">
<path opacity="0.87" d="M219.16 132.845L228.815 170.26L201.51 159.14L191.855 121.725L219.16 132.845Z" stroke="#202932" stroke-width="2"/>
</g>
<g opacity="0.87">
<path opacity="0.87" d="M219.919 130.994L192.625 119.879L225.786 100.083L253.175 111.199L219.919 130.994Z" stroke="#202932" stroke-width="2"/>
</g>
</g>
</g>
<g opacity="0.87">
<path d="M220 115L207 63" stroke="#202932"/>
</g>
<g opacity="0.87">
<path d="M183.203 33.6155L216.823 13.6035L226.483 51.4123L192.96 71.4244L183.203 33.6155Z" stroke="#202932" stroke-width="2"/>
</g>
<path opacity="0.87" d="M181.205 33.8761L190.86 71.2912L163.555 60.1712L153.9 22.7561L181.205 33.8761Z" stroke="#202932" stroke-width="2"/>
<path opacity="0.87" d="M181.964 32.0256L154.67 20.91L187.831 1.11379L215.22 12.2298L181.964 32.0256Z" stroke="#202932" stroke-width="2"/>
</g>
<path d="M102.468 169.504C102.468 169.403 103.282 168.896 104.808 167.882C106.335 166.869 108.675 165.45 111.728 163.626C117.732 159.978 126.382 154.809 136.965 148.424L137.27 148.222L137.576 148.323C146.022 151.87 155.791 155.924 166.374 160.383L166.679 160.484L166.781 160.89C169.732 173.051 172.989 186.327 176.347 200.312L176.449 200.921L175.94 201.225C163.627 208.42 151.924 215.311 141.239 221.595L140.934 221.797L140.628 221.696C130.045 217.136 120.276 212.98 111.83 209.433L111.525 209.332L111.423 209.028C108.573 196.867 106.233 187.036 104.707 180.145C103.892 176.699 103.384 174.064 102.977 172.24C102.57 170.517 102.468 169.605 102.468 169.504C102.57 169.504 102.773 170.416 103.282 172.24C103.791 174.064 104.503 176.699 105.317 180.044C107.047 186.834 109.489 196.664 112.542 208.724C112.44 208.623 112.339 208.42 112.237 208.319C120.683 211.866 130.452 215.919 141.137 220.379C140.934 220.379 140.73 220.379 140.425 220.379C151.11 213.994 162.914 207.103 175.126 199.907C175.024 200.211 174.922 200.515 174.719 200.819C171.36 186.834 168.206 173.558 165.255 161.396C165.356 161.599 165.56 161.7 165.662 161.903C155.079 157.343 145.309 153.188 136.965 149.64C137.169 149.64 137.372 149.64 137.474 149.64C126.789 155.822 118.037 160.89 111.932 164.335C108.879 166.058 106.538 167.376 104.91 168.288C103.384 169.2 102.57 169.605 102.468 169.504Z" fill="#DA2A2A"/>
<path d="M140.832 221.088C140.628 221.189 139.509 217.237 137.779 211.055C136.151 204.772 133.912 196.056 131.572 186.428C131.165 184.908 130.859 183.287 130.452 181.868C130.656 182.071 130.758 182.273 130.961 182.375C122.82 178.929 115.697 175.787 110.609 173.456C105.521 171.125 102.468 169.707 102.57 169.504C102.671 169.301 105.826 170.517 111.118 172.544C116.307 174.571 123.533 177.51 131.673 180.956L132.08 181.158L132.182 181.564C132.589 182.983 132.895 184.604 133.302 186.124C135.642 195.752 137.677 204.468 139 210.852C140.323 217.136 141.036 221.088 140.832 221.088Z" fill="#DA2A2A"/>
<path d="M131.266 181.665C131.063 181.26 138.593 176.395 148.261 170.72C157.826 165.045 165.865 160.788 166.069 161.194C166.272 161.599 158.742 166.464 149.075 172.139C139.509 177.814 131.47 182.071 131.266 181.665Z" fill="#DA2A2A"/>
<g opacity="0.87">
<g opacity="0.87">
<g opacity="0.87">
<g opacity="0.87">
<path opacity="0.87" d="M58.0293 316.616L91.6491 296.603L101.309 334.412L67.7862 354.424L58.0293 316.616Z" stroke="#202932" stroke-width="2"/>
<path d="M95.5 316L161.5 281" stroke="#202932"/>
</g>
<g opacity="0.87">
<path opacity="0.87" d="M56.0311 316.876L65.6863 354.291L38.3817 343.171L28.7265 305.756L56.0311 316.876Z" stroke="#202932" stroke-width="2"/>
</g>
<g opacity="0.87">
<path opacity="0.87" d="M56.7899 315.026L29.4961 303.91L62.6576 284.114L90.0463 295.23L56.7899 315.026Z" stroke="#202932" stroke-width="2"/>
</g>
</g>
</g>
</g>
<g opacity="0.87">
<g opacity="0.87">
<path d="M31.0933 238.615L64.6148 218.603L74.3719 256.413L40.8504 276.424L31.0933 238.615Z" stroke="#202932" stroke-width="2"/>
</g>
<path d="M29.0955 238.877L38.7531 276.301L11.344 265.27L1.68689 227.753L29.0955 238.877Z" stroke="#202932" stroke-width="2"/>
<path d="M29.8529 237.026L2.46412 225.91L35.7205 206.114L63.0144 217.229L47.0811 226.741L29.8529 237.026Z" stroke="#202932" stroke-width="2"/>
</g>
</svg>
