<svg width="1099" height="939" viewBox="0 0 1099 939" fill="none" xmlns="http://www.w3.org/2000/svg">
<path d="M1096.47 151.859C1095.32 151.315 1093.98 151.83 1093.21 152.737L1036.89 115.367C1036.89 115.367 1037.01 115.256 1036.9 115.13C1037.59 113.624 1036.74 111.907 1035.23 111.223C1034.18 110.804 1033.1 111.097 1032.23 111.64L980.271 60.963C980.522 60.7398 980.536 60.5027 980.551 60.2655C981.235 58.7591 980.386 57.0428 978.879 56.3585C977.373 55.6743 975.656 56.5247 974.972 58.0311C974.832 58.3798 974.803 58.8542 974.775 59.3286L923.983 68.935C923.676 68.0839 923.119 67.4558 922.31 67.0509C920.804 66.3667 919.087 67.2172 918.402 68.7236C918.262 69.0723 918.248 69.3095 918.108 69.6582L882.807 72.923C882.627 71.9602 881.958 71.2066 880.911 70.7877C880.214 70.5084 879.503 70.4662 878.888 70.7868L855.93 26.7059C856.307 26.3711 856.81 25.9249 856.964 25.339C857.649 23.8326 856.799 22.1161 855.293 21.432C854.01 20.999 852.558 21.3891 851.902 22.4212L819.311 4.18805C819.995 2.68164 819.146 0.965265 817.639 0.281056C816.133 -0.403158 814.416 0.447298 813.732 1.9537C813.326 2.76275 813.507 3.72541 813.827 4.33943L776.08 30.6647C775.746 30.2879 775.397 30.1482 774.937 29.8829C773.431 29.1987 771.714 30.049 771.029 31.5555C770.344 33.062 771.194 34.7784 772.7 35.4626C772.7 35.4626 772.812 35.5881 772.937 35.4766L755.885 127.883L755.648 127.869L755.857 128.357L755.646 129.892L756.289 129.097L781.558 178.313C781.181 178.648 780.679 179.094 780.525 179.68C779.98 180.838 780.383 182.052 781.164 182.931L755.827 218.678C755.716 218.552 755.715 218.552 755.478 218.538C753.972 217.854 752.255 218.704 751.57 220.211C751.011 221.606 751.638 223.071 752.781 223.853L657.126 295.302C656.903 295.05 656.443 294.785 656.094 294.645C654.588 293.961 652.871 294.812 652.187 296.318C651.502 297.825 652.351 299.541 653.858 300.225C654.444 300.379 655.029 300.533 655.518 300.323L690.604 392.485C689.99 392.806 689.487 393.252 689.207 393.95C688.928 394.647 689.011 395.247 689.094 395.847L650.741 412.378C650.421 411.764 649.849 411.373 649.263 411.22C647.757 410.535 646.04 411.386 645.356 412.892C644.936 413.938 645.103 415.138 645.883 416.018L620.622 444.51C620.51 444.385 620.273 444.37 620.05 444.119C618.544 443.435 616.827 444.285 616.142 445.792C615.457 447.298 616.307 449.015 617.813 449.699C617.925 449.824 618.05 449.713 618.162 449.839L609.946 517.778C608.76 517.708 607.644 518.475 607.21 519.758C606.525 521.264 607.375 522.981 608.881 523.665C609.927 524.084 610.89 523.903 611.756 523.359L639.121 551.398C638.87 551.621 638.73 551.97 638.59 552.319C638.031 553.714 638.532 555.29 639.913 556.086L629.222 577.706C628.483 578.138 627.952 579.059 627.895 580.008L578.364 582.43C578.266 582.067 578.281 581.83 578.058 581.579C577.305 580.225 575.436 579.638 574.082 580.391C572.98 580.921 572.434 582.079 572.601 583.279L564.479 585.773L519.85 599.79C519.097 598.437 517.34 597.976 515.874 598.603C514.52 599.356 513.933 601.225 514.685 602.578C514.894 603.067 515.117 603.318 515.577 603.583L493.361 644.87C492.664 644.591 491.715 644.535 490.85 645.079L474.78 623.183L422.025 661.71C421.133 660.705 419.599 660.495 418.482 661.262C417.868 661.582 417.477 662.154 417.086 662.726L380.971 653.685C381.125 653.1 381.042 652.5 380.596 651.997C379.844 650.644 377.974 650.057 376.621 650.81C376.006 651.13 375.49 651.814 375.336 652.4L315.743 639.946C315.771 639.471 315.688 638.872 315.367 638.258C314.615 636.904 312.746 636.317 311.392 637.07C310.038 637.823 309.451 639.692 310.203 641.046C310.524 641.66 310.984 641.925 311.555 642.316L298.913 680.719C298.327 680.565 297.601 680.76 296.987 681.081C295.759 681.722 295.199 683.117 295.589 684.568L207.995 724.602L208.092 724.965C207.549 724.099 206.754 723.457 205.805 723.401L204.259 685.467C204.622 685.37 204.859 685.384 205.11 685.16C206.464 684.408 207.052 682.538 206.299 681.185C205.547 679.831 203.678 679.245 202.324 679.997C201.458 680.541 200.942 681.225 200.885 682.173L118.974 680.774C118.877 680.411 118.78 680.048 118.557 679.797C118.027 678.695 116.87 678.15 115.67 678.317L109.014 644.246C109.139 644.134 109.139 644.134 109.376 644.148C110.73 643.395 111.318 641.526 110.566 640.172C109.813 638.819 107.944 638.232 106.59 638.985C105.85 639.417 105.334 640.101 105.166 640.924L6.52878 636.63C6.43141 636.267 6.45969 635.793 6.12514 635.416C5.37281 634.063 3.50371 633.476 2.14978 634.229C0.795845 634.982 0.208383 636.851 0.960717 638.204C1.49002 639.307 2.88478 639.865 4.08478 639.698L23.4408 704.272L23.3152 704.384C21.9612 705.137 21.3738 707.006 22.1261 708.36C22.6696 709.225 23.7015 709.881 24.6502 709.937L32.1412 781.901C31.9041 781.887 31.6528 782.11 31.4156 782.096C30.0617 782.849 29.4742 784.718 30.2265 786.071C30.9789 787.425 32.848 788.012 34.2019 787.259C34.6904 787.05 34.9417 786.827 35.2071 786.366L80.2522 811.287C79.8469 812.096 79.916 812.933 80.4595 813.798C81.2118 815.152 83.0809 815.738 84.4348 814.986C84.6861 814.763 85.049 814.665 85.1888 814.316L114.221 834.362C113.816 835.171 113.871 836.245 114.177 837.096C114.497 837.71 115.18 838.227 115.766 838.38L105.013 887.01C104.538 886.982 103.938 887.066 103.324 887.386C101.97 888.139 101.383 890.008 102.135 891.362C102.776 892.59 104.171 893.148 105.385 892.744L118.668 927.446C117.314 928.199 116.852 929.957 117.59 931.548C118.342 932.901 120.212 933.488 121.565 932.735C122.305 932.303 122.822 931.619 122.99 930.796L168.902 935.181C168.874 935.655 169.083 936.144 169.18 936.506C169.933 937.86 171.802 938.447 173.156 937.694C174.51 936.941 175.097 935.072 174.345 933.718L174.233 933.593L246.231 873.714L246.454 873.965L246.482 873.491L247.613 872.487L246.65 872.668L258.664 818.876C259.138 818.905 259.738 818.821 260.352 818.5C261.455 817.971 262 816.813 261.833 815.613L304.158 804.315C304.27 804.441 304.27 804.441 304.256 804.678C305.008 806.032 306.877 806.618 308.231 805.865C309.585 805.113 310.033 803.592 309.518 802.252L428.397 808.34C428.494 808.703 428.466 809.177 428.801 809.554C429.553 810.907 431.422 811.494 432.776 810.741C434.13 809.988 434.718 808.119 433.965 806.766C433.645 806.152 433.185 805.886 432.724 805.621L465.041 712.69C465.627 712.844 466.464 712.775 467.078 712.454C467.692 712.133 468.083 711.562 468.349 711.101L508.228 722.864C508.074 723.45 508.269 724.175 508.589 724.789C509.342 726.143 511.211 726.729 512.565 725.977C513.556 725.321 514.087 724.401 514.032 723.326L551.497 717.691C551.483 717.928 551.594 718.054 551.817 718.305C552.57 719.658 554.439 720.245 555.793 719.492C557.147 718.739 557.734 716.87 556.982 715.517C556.87 715.391 556.87 715.391 556.759 715.265L606.437 668.464C607.343 669.232 608.64 669.428 609.631 668.773C610.985 668.02 611.573 666.15 610.821 664.797C610.277 663.932 609.357 663.401 608.408 663.345L605.258 624.364C605.621 624.266 605.858 624.28 606.235 623.946C607.589 623.193 608.036 621.672 607.521 620.333L645.037 603.871L645.149 603.997C645.901 605.35 647.77 605.937 649.124 605.184C649.989 604.64 650.52 603.72 650.577 602.771C650.619 602.06 650.425 601.334 650.104 600.72L686.546 566.344C686.769 566.596 687.118 566.735 687.355 566.749C688.861 567.434 690.578 566.583 691.263 565.077C691.682 564.031 691.404 562.705 690.623 561.826L695.331 554.726L720.768 515.296C722.289 515.743 723.991 515.13 724.439 513.61C725.124 512.103 724.274 510.387 722.768 509.703C722.308 509.437 721.833 509.409 721.471 509.507L712.201 463.38C713.052 463.074 713.681 462.516 713.974 461.581L740.478 468.149L756.531 404.481C757.829 404.677 759.183 403.924 759.616 402.641C759.896 401.943 759.938 401.232 759.618 400.618L793.31 384.406C793.631 385.02 794.091 385.285 794.788 385.564C796.295 386.249 798.011 385.398 798.696 383.892C798.976 383.194 799.018 382.483 798.698 381.869L852.77 353.178C853.105 353.555 853.551 354.058 854.137 354.211C855.643 354.895 857.36 354.045 858.045 352.539C858.729 351.032 857.88 349.316 856.373 348.632C855.788 348.478 855.202 348.324 854.476 348.519L839.703 310.873C840.317 310.552 840.708 309.98 841.099 309.409C841.658 308.014 841.143 306.674 840 305.892L881.855 218.644L881.506 218.504C882.441 218.797 883.515 218.742 884.269 218.073L909.834 246.362C909.583 246.585 909.443 246.934 909.304 247.282C908.619 248.789 909.468 250.505 910.975 251.189C912.481 251.874 914.198 251.023 914.883 249.517C915.176 248.582 915.107 247.745 914.564 246.88L978.686 195.341C978.909 195.592 979.258 195.732 979.606 195.872C980.652 196.29 981.978 196.012 982.857 195.231L1009.86 217.299C1009.74 217.41 1009.85 217.536 1009.73 217.647C1009.04 219.154 1009.89 220.87 1011.4 221.554C1012.9 222.239 1014.62 221.388 1015.3 219.882C1015.71 219.073 1015.64 218.236 1015.21 217.496L1093.99 157.662C1094.21 157.913 1094.67 158.178 1095.02 158.318C1096.52 159.002 1098.24 158.152 1098.93 156.645C1098.72 154.134 1098.11 152.432 1096.47 151.859ZM979.14 61.967C979.503 61.8695 979.754 61.6464 979.88 61.5348L1031.84 112.212C1031.59 112.435 1031.57 112.672 1031.56 112.91C1031.42 113.258 1031.39 113.733 1031.36 114.207L992.57 122.144L979.14 61.967ZM879.386 76.4094C879.735 76.549 880.321 76.7027 880.684 76.6052L886.828 105.291L874.644 74.1056L877.505 74.0369C877.56 75.1113 878.34 75.9904 879.386 76.4094ZM925.733 113.426C925.608 113.538 925.593 113.775 925.579 114.012L891.079 109.827C891.122 109.116 890.69 108.376 890.244 107.874L902.547 93.1322L925.873 113.078C925.873 113.078 925.859 113.315 925.733 113.426ZM931.187 115.772L961.303 123.625L929.302 117.446C930.027 117.251 930.781 116.581 931.187 115.772ZM926.596 116.928L898.598 111.463L925.411 114.835C925.606 115.561 925.912 116.412 926.596 116.928ZM889.686 107.246C889.575 107.12 889.338 107.106 889.226 106.981C888.766 106.715 888.292 106.687 887.929 106.785L881.409 76.4102C881.772 76.3127 882.023 76.0896 882.4 75.7549L901.99 92.5041L889.686 107.246ZM886.715 107.189C886.226 107.398 885.723 107.844 885.57 108.43L798.633 75.5548L798.41 75.3035L798.424 75.0663L873.682 74.2866L886.715 107.189ZM885.29 109.128C885.276 109.365 885.262 109.602 885.248 109.839L823.711 119.999L797.6 76.9216C797.851 76.6984 798.228 76.3637 798.368 76.015L885.29 109.128ZM846.051 152.501C845.968 151.901 845.759 151.412 845.424 151.035L886.306 112.044C886.529 112.295 886.766 112.309 887.115 112.449C887.115 112.449 887.227 112.574 887.352 112.463L880.037 153.323L846.051 152.501ZM908.623 154.897C908.721 155.259 908.818 155.622 908.915 155.985L878.065 176.412C877.731 176.035 877.271 175.77 876.922 175.63C876.922 175.63 876.811 175.504 876.685 175.616L880.455 154.3L908.623 154.897ZM784.67 178.021L805.011 126.27C805.597 126.424 806.197 126.34 806.685 126.131L824.349 161.212L785.799 179.04C785.465 178.663 785.13 178.287 784.67 178.021ZM807.299 125.811C807.425 125.699 807.551 125.587 807.676 125.476L840.415 151.215C840.289 151.326 840.275 151.564 840.15 151.675C839.87 152.373 839.828 153.084 840.148 153.698L824.851 160.765L807.299 125.811ZM808.305 124.918C808.43 124.807 808.445 124.569 808.57 124.458C808.71 124.109 808.738 123.635 808.878 123.286L823.418 120.934L841.406 150.559C841.281 150.671 841.281 150.671 841.155 150.783L808.305 124.918ZM824.018 120.85L885.317 110.676C885.414 111.039 885.637 111.29 885.734 111.653L844.852 150.645C844.629 150.393 844.392 150.379 844.043 150.24C843.346 149.96 842.509 150.03 841.783 150.225L824.018 120.85ZM822.749 120.18L808.446 122.546C808.14 121.695 807.582 121.067 806.773 120.662C806.425 120.523 805.95 120.495 805.476 120.467L802.974 108.537L796.608 77.5769L796.734 77.4653L822.749 120.18ZM804.75 120.662C803.899 120.968 803.271 121.526 802.977 122.461C802.543 123.744 802.933 125.195 804.076 125.977L789.998 126.571L795.646 77.7578C795.646 77.7578 795.646 77.7578 795.883 77.7718L804.75 120.662ZM804.034 126.688L783.973 177.742L789.844 127.157L804.034 126.688ZM785.994 179.766L824.655 162.063L845.634 203.409C845.257 203.743 845.006 203.966 844.74 204.427L786.132 181.44C786.175 180.728 786.203 180.254 785.994 179.766ZM825.395 161.631L840.691 154.563C841.026 154.94 841.472 155.442 842.058 155.596C842.407 155.736 842.644 155.75 842.993 155.89L846.736 202.879C846.611 202.99 846.499 202.865 846.374 202.976L825.395 161.631ZM843.844 155.583C843.969 155.471 844.207 155.485 844.332 155.374L864.983 188.251L849.094 203.257C848.871 203.005 848.634 202.991 848.285 202.852C847.936 202.712 847.699 202.698 847.351 202.558L843.844 155.583ZM865.918 188.544L874.114 180.819C874.225 180.944 874.462 180.958 874.574 181.084C874.923 181.224 875.397 181.252 875.871 181.28L881.162 212.296C881.037 212.407 880.925 212.282 880.799 212.393L865.918 188.544ZM873.667 180.316L865.597 187.93L844.947 155.053C845.072 154.942 845.198 154.83 845.449 154.607L873.28 176.842C873.154 176.954 873.154 176.954 873.14 177.191C872.595 178.349 872.887 179.437 873.667 180.316ZM845.84 154.035C845.98 153.686 845.994 153.449 846.12 153.338L879.869 154.146L875.987 175.337C875.039 175.28 874.299 175.713 873.671 176.27L845.84 154.035ZM878.386 177.026L909.236 156.599C909.57 156.976 910.031 157.241 910.379 157.381C910.616 157.395 910.728 157.52 911.077 157.66L911.126 182.772L878.664 178.351C878.692 177.877 878.72 177.402 878.386 177.026ZM880.623 153.477L887.924 112.853C888.398 112.882 888.761 112.784 889.124 112.687L909.727 152.344C909.35 152.679 908.848 153.125 908.694 153.711C908.68 153.948 908.554 154.06 908.54 154.297L880.623 153.477ZM889.864 112.254C890.241 111.92 890.743 111.473 890.897 110.888L891.023 110.776L970.188 126.293C970.16 126.767 970.145 127.004 970.243 127.367L914.205 153.085C913.885 152.471 913.425 152.206 912.727 151.927C912.03 151.647 911.319 151.605 910.704 151.926L889.864 112.254ZM914.4 153.811L970.438 128.093C970.758 128.707 971.33 129.098 971.916 129.251C972.264 129.391 972.613 129.531 972.976 129.433L975.553 152.077L914.498 154.174C914.512 153.936 914.4 153.811 914.4 153.811ZM1000.47 149.268C1000.36 149.143 1000.01 149.003 999.902 148.878C999.441 148.612 998.967 148.584 998.604 148.682L992.765 122.87L1031.56 114.933C1031.65 115.295 1031.88 115.547 1032.1 115.798L1000.47 149.268ZM1031.02 117.876L982.416 188.66L997.902 154.471C999.422 154.918 1001.01 154.18 1001.57 152.785C1001.99 151.738 1001.7 150.65 1001.16 149.785L1031.02 117.876ZM997.878 148.877C997.516 148.974 997.264 149.197 997.139 149.309L975.669 128.165C975.795 128.053 975.935 127.704 976.061 127.593C976.2 127.244 976.229 126.77 976.257 126.295L992.276 123.079L997.878 148.877ZM996.51 149.867C996.259 150.09 996.245 150.327 996.105 150.676C995.965 151.025 995.951 151.262 995.937 151.499L976.264 152.119L973.687 129.475C974.05 129.378 974.539 129.169 974.916 128.834L996.51 149.867ZM976.348 152.719L995.909 151.973C995.978 152.81 996.536 153.438 997.219 153.955L981.188 189.301C980.951 189.287 980.602 189.147 980.365 189.133L976.348 152.719ZM982.317 190.32L1032.88 116.677C1032.99 116.803 1032.99 116.803 1033.23 116.817C1033.23 116.817 1033.23 116.817 1033.34 116.942L1020 179.104L982.972 191.311C982.763 190.822 982.54 190.571 982.317 190.32ZM978.177 62.1481C978.303 62.0365 978.303 62.0365 978.177 62.1481L991.844 122.339L975.825 125.556C975.519 124.704 974.961 124.076 974.027 123.783C973.915 123.657 973.678 123.644 973.441 123.629L978.177 62.1481ZM977.466 62.1059L972.841 123.713C972.241 123.796 971.752 124.005 971.264 124.214L945.573 96.0369L976.294 61.7986C976.405 61.9242 976.754 62.0637 976.866 62.1893C977.117 61.9662 977.354 61.9803 977.466 62.1059ZM924.33 71.0976C924.469 70.7489 924.498 70.2746 924.526 69.8002L975.207 60.0681C975.304 60.4309 975.528 60.682 975.862 61.0589L945.141 95.2973L923.813 71.781C923.939 71.6694 924.078 71.3207 924.33 71.0976ZM970.761 124.661C970.51 124.884 970.496 125.121 970.244 125.344L931.34 115.186C931.509 114.363 931.328 113.401 930.659 112.647L945.07 96.4831L970.761 124.661ZM922.445 72.771C922.808 72.6735 923.059 72.4504 923.296 72.4644L944.736 96.1063L930.199 112.382C930.087 112.256 929.738 112.116 929.627 111.991C929.278 111.851 928.804 111.823 928.567 111.809L922.445 72.771ZM921.608 72.8405L927.618 111.753C927.13 111.962 926.767 112.06 926.39 112.394L903.064 92.4487L919.85 72.3793C919.962 72.505 920.199 72.519 920.31 72.6447C920.896 72.7984 921.245 72.938 921.608 72.8405ZM883.057 74.7228C883.197 74.374 883.211 74.1368 883.239 73.6625L918.54 70.3978C918.749 70.8862 918.958 71.3745 919.292 71.7513L902.506 91.8207L882.917 75.0715C882.917 75.0715 883.043 74.9599 883.057 74.7228ZM878.623 71.2471C878.246 71.5819 877.743 72.0281 877.589 72.614C877.575 72.8512 877.436 73.1999 877.421 73.437L874.324 73.4916L857.699 30.9756L878.623 71.2471ZM873.501 73.3238L798.592 74.2433C798.495 73.8805 798.286 73.3922 798.189 73.0293L852.847 26.5232C853.07 26.7744 853.419 26.9141 853.768 27.0537C854.354 27.2074 854.939 27.3611 855.665 27.1661L873.501 73.3238ZM796.822 71.9964L809.72 29.3246L851.872 24.9184C851.969 25.2813 852.067 25.644 852.29 25.8952L797.631 72.4013C797.282 72.2617 797.171 72.136 796.822 71.9964ZM819.505 4.91367L852.097 23.1468C851.957 23.4955 851.943 23.7327 851.914 24.207L809.999 28.627L816.686 6.2937C817.76 6.23829 818.737 5.82014 819.505 4.91367ZM776.638 31.2927L814.971 5.12107C815.194 5.37228 815.654 5.63758 816.003 5.77727L809.176 28.4593L776.847 31.781C776.735 31.6554 776.75 31.4183 776.638 31.2927ZM776.734 33.6784C776.874 33.3297 776.888 33.0925 776.916 32.6182L808.882 29.394L796.279 71.1313L775.714 34.808C776.203 34.5989 776.468 34.1387 776.734 33.6784ZM773.886 35.5328C774.361 35.5609 774.723 35.4634 775.086 35.3658L795.651 71.689C794.465 71.6188 793.348 72.3857 792.803 73.5435C792.258 74.7012 792.661 75.9151 793.442 76.7943L756.793 126.628L773.886 35.5328ZM794.251 77.1992C794.362 77.3248 794.488 77.2133 794.6 77.3389C794.711 77.4645 794.837 77.3529 794.948 77.4785L789.175 126.403L757.085 127.716L794.251 77.1992ZM756.917 128.539L789.133 127.115L783.275 177.463C782.912 177.56 782.675 177.546 782.312 177.644L756.917 128.539ZM784.359 183.239C784.973 182.918 785.476 182.472 785.867 181.9L844.475 204.887C844.46 205.124 844.321 205.473 844.306 205.71L792.385 214.298L784.359 183.239ZM845.365 207.915L824.357 238.92L818.099 248.07L807.008 264.43C806.423 264.277 805.837 264.123 805.348 264.332L792.579 215.023L844.39 206.31C844.584 207.036 844.905 207.65 845.365 207.915ZM756.524 218.957L781.861 183.21C781.973 183.336 781.973 183.336 782.21 183.35C782.67 183.615 783.145 183.643 783.745 183.56L791.77 214.618L757.388 220.436C757.179 219.948 756.859 219.334 756.524 218.957ZM757.275 222.334C757.415 221.985 757.443 221.511 757.583 221.162L791.965 215.344L804.734 264.653C804.483 264.876 804.246 264.862 803.994 265.085L795.406 257.436L757.01 222.794C757.135 222.683 757.15 222.445 757.275 222.334ZM756.493 223.478L794.555 257.743L803.589 265.894C803.463 266.005 803.449 266.243 803.324 266.354C803.17 266.94 803.141 267.414 803.225 268.014L778.871 277.282L756.116 223.812C756.242 223.701 756.367 223.589 756.493 223.478ZM706.816 322.163C706.941 322.052 707.067 321.94 707.193 321.829L731.54 338.621L748.342 350.208C748.217 350.319 748.217 350.319 748.203 350.556C747.797 351.365 747.978 352.328 748.41 353.068L733.473 364.083L706.816 322.163ZM732.733 364.516L694.022 393.045C693.799 392.793 693.338 392.528 692.99 392.389C692.99 392.389 692.878 392.263 692.753 392.375L704.75 322.874C705.225 322.902 705.713 322.693 706.076 322.595L732.733 364.516ZM731.708 337.798L707.695 321.382C707.821 321.271 707.821 321.271 707.835 321.034C707.975 320.685 708.003 320.211 708.032 319.736L752.893 311.802L750.702 348.562C749.864 348.632 749.25 348.952 748.622 349.51L731.708 337.798ZM752.479 288.81C752.813 289.187 753.162 289.326 753.622 289.591C753.86 289.606 753.971 289.731 754.208 289.745L752.936 311.09L707.837 319.011C707.725 318.885 707.739 318.648 707.628 318.522L752.479 288.81ZM706.736 317.517L720.109 290.82L751.727 287.456C751.712 287.693 751.935 287.945 751.921 288.182L707.182 318.02C707.196 317.783 706.847 317.643 706.736 317.517ZM754.92 289.787C755.757 289.718 756.622 289.174 757.139 288.491L787.751 303.989C787.737 304.226 787.835 304.589 788.058 304.84L753.898 310.909L754.92 289.787ZM753.73 311.732L788.49 305.579C788.601 305.705 788.713 305.83 788.824 305.956L752.696 349.037C752.585 348.912 752.348 348.898 752.236 348.772C751.999 348.758 751.887 348.633 751.65 348.619L753.73 311.732ZM753.142 349.54L777.218 320.977L789.507 306.473C789.507 306.473 789.507 306.473 789.619 306.598C789.968 306.738 790.205 306.752 790.442 306.766L793.392 351.09L754.104 351.382C753.797 350.531 753.588 350.042 753.142 349.54ZM757.419 287.793C757.573 287.207 757.601 286.733 757.518 286.133L778.34 278.203L788.367 301.645C788.116 301.868 787.976 302.217 787.836 302.566C787.822 302.803 787.696 302.914 787.682 303.151L757.419 287.793ZM779.192 277.896L803.308 268.614C803.517 269.103 803.851 269.479 804.311 269.745L791.395 300.753C790.572 300.586 789.735 300.655 788.995 301.087L779.192 277.896ZM792.204 301.158L804.995 270.261C805.692 270.54 806.529 270.471 807.143 270.15L828.531 306.641L793.612 303.503C793.431 302.54 793.013 301.563 792.204 301.158ZM754.902 224.216C755.027 224.105 755.139 224.23 755.265 224.119L778.02 277.589L757.197 285.519C756.877 284.905 756.431 284.403 755.733 284.123C755.496 284.109 755.385 283.984 755.148 283.97L754.902 224.216ZM753.842 224.035C753.953 224.16 754.079 224.049 754.19 224.174L754.325 283.802C753.25 283.857 752.371 284.638 751.951 285.684C751.811 286.033 751.672 286.382 751.769 286.745L720.64 289.899L753.842 224.035ZM657.81 295.818L752.334 225.373L719.551 290.192L658.004 296.544C658.018 296.306 657.921 295.944 657.81 295.818ZM658.199 297.269L719.272 290.889L705.927 317.113C704.644 316.68 703.067 317.181 702.522 318.339L658.031 298.092C658.171 297.743 658.185 297.506 658.199 297.269ZM656.62 299.794C657.109 299.585 657.486 299.25 657.751 298.79L702.242 319.036C701.794 320.557 702.533 322.148 703.927 322.706C703.927 322.706 704.039 322.832 704.164 322.72L692.167 392.221C691.929 392.207 691.692 392.193 691.329 392.29L656.62 299.794ZM690.879 397.857C691.339 398.122 691.939 398.038 692.413 398.067L697.478 414.908L661.029 423.46C660.918 423.334 660.82 422.971 660.709 422.846L689.958 397.326C690.181 397.577 690.53 397.717 690.879 397.857ZM650.935 415.127C651.214 414.429 651.131 413.829 651.048 413.229L689.401 396.698L689.512 396.824L660.263 422.343C660.04 422.092 659.691 421.952 659.342 421.813C658.296 421.394 657.333 421.575 656.468 422.118L650.529 415.936C650.669 415.587 650.92 415.364 650.935 415.127ZM648.45 416.884C649.05 416.8 649.538 416.591 650.027 416.382L655.965 422.565C655.714 422.788 655.7 423.025 655.56 423.374C655.28 424.071 655.35 424.908 655.544 425.634L647.784 430.053L648.45 416.884ZM657.12 427.155C657.231 427.281 657.231 427.281 657.12 427.155L643.809 498.72L647.615 430.876L655.865 426.248C656.199 426.625 656.534 427.001 657.12 427.155ZM648.975 475.939L658.054 427.448C658.529 427.476 659.129 427.393 659.617 427.184L692.159 472.19L645.466 502.864C645.131 502.487 644.671 502.222 644.322 502.082C644.322 502.082 644.211 501.957 644.085 502.068L648.975 475.939ZM621.305 445.027L646.566 416.534C646.678 416.66 646.915 416.674 647.138 416.925C647.375 416.939 647.487 417.065 647.724 417.079L647.03 430.723L621.528 445.278C621.305 445.027 621.305 445.027 621.305 445.027ZM620.562 449.505C621.176 449.184 621.567 448.612 621.847 447.915C622.126 447.217 622.057 446.38 621.862 445.655L646.876 431.309L643.039 501.649C642.802 501.635 642.676 501.747 642.439 501.733L620.562 449.505ZM641.699 502.165C641.085 502.486 640.694 503.057 640.414 503.755C640.135 504.452 640.092 505.164 640.413 505.778L632.932 509.5L620.351 451.039L641.699 502.165ZM642.638 550.297C642.526 550.172 642.401 550.283 642.289 550.158L643.397 507.621C643.76 507.523 644.123 507.426 644.611 507.216L668.904 538.882L643.99 551.567C643.781 551.079 643.335 550.577 642.638 550.297ZM642.1 507.425C642.337 507.439 642.448 507.564 642.686 507.579L641.466 549.99L632.903 509.974L640.622 506.266C641.068 506.769 641.514 507.271 642.1 507.425ZM619.111 449.895L619.348 449.909L632.206 509.695L612.722 519.132C612.513 518.644 611.941 518.253 611.244 517.974C611.132 517.848 611.006 517.96 610.895 517.834L619.111 449.895ZM612.398 522.564C612.649 522.341 612.663 522.104 612.803 521.755C613.083 521.058 613.125 520.346 612.805 519.732L632.164 510.407L640.74 550.185C640.378 550.282 640.015 550.38 639.763 550.603L612.398 522.564ZM640.401 555.877C640.75 556.017 641.098 556.156 641.461 556.059L644.956 583.279L637 586.973L633.154 581.628C634.159 580.736 634.369 579.201 633.603 578.085C632.962 576.857 631.679 576.424 630.479 576.591L640.764 555.779L640.401 555.877ZM636.26 587.405L622.917 593.636C622.806 593.511 622.694 593.385 622.583 593.259L629.665 582.255C630.474 582.659 631.548 582.604 632.288 582.172L636.26 587.405ZM628.55 580.999C628.773 581.25 628.87 581.613 629.219 581.752L623.576 590.581L628.55 580.999C628.438 580.873 628.55 580.999 628.55 580.999ZM623.418 595.213C623.433 594.976 623.335 594.613 623.349 594.376L636.692 588.145L645.389 599.965C645.138 600.188 645.123 600.425 644.984 600.774L630.56 597.183L623.418 595.213ZM646.017 599.407L637.544 587.838L645.136 584.242L646.994 598.989C646.52 598.961 646.269 599.184 646.017 599.407ZM578.433 583.267L628.007 580.133L621.914 592.506L621.802 592.38C620.407 591.822 618.942 592.449 618.16 593.592L578.433 583.267C578.307 583.378 578.433 583.267 578.433 583.267ZM520.17 600.404L532.534 596.614L572.67 584.116C572.782 584.241 572.767 584.478 572.879 584.604C573.422 585.469 574.106 585.986 575.166 586.167L574.14 613.358L520.253 601.004C520.142 600.879 520.156 600.641 520.17 600.404ZM520.197 601.953L574.097 614.07L572.545 654.081C572.182 654.179 571.819 654.276 571.331 654.485C571.205 654.597 571.08 654.708 570.954 654.82L519.777 602.999C519.931 602.413 520.182 602.19 520.197 601.953ZM550.108 675.125L512.175 706.556C511.841 706.179 511.255 706.026 510.795 705.761L514.564 650.529L569.878 656.898C569.85 657.373 570.058 657.861 570.267 658.349L570.379 658.475L550.108 675.125ZM568.452 660.86L522.301 710.369L512.997 708.747C513.025 708.273 512.942 707.673 512.733 707.184L512.621 707.059L568.452 660.86ZM574.131 659.411C574.745 659.091 575.136 658.519 575.416 657.821L583.507 659.847L555.854 712.475L572.22 659.536C572.917 659.815 573.517 659.732 574.131 659.411ZM575.696 657.124C575.85 656.538 575.766 655.938 575.32 655.436C575.209 655.31 574.986 655.059 574.874 654.933L602.831 623.149L583.898 659.276L575.696 657.124ZM517.684 604.184C518.046 604.087 518.409 603.989 518.661 603.766C518.912 603.543 519.275 603.445 519.289 603.208L570.354 654.904C570.103 655.127 569.837 655.587 569.809 656.061L514.606 649.817L517.684 604.184ZM494.936 646.392C494.728 645.903 494.504 645.652 494.044 645.387L516.261 604.1C516.498 604.114 516.609 604.239 516.846 604.253L513.657 649.761L495.103 647.592C495.243 647.243 495.159 646.643 494.936 646.392ZM495.172 648.429L513.726 650.598L509.957 705.83L509.72 705.816L504.197 686.687L493.622 650.479C493.747 650.367 493.747 650.367 493.873 650.256C494.487 649.935 495.004 649.252 495.172 648.429ZM467.04 707.097L473.945 691.083L507.347 707.698C507.333 707.936 507.207 708.047 507.193 708.284L468.462 709.204C468.364 708.841 468.267 708.478 468.044 708.227C467.835 707.739 467.501 707.362 467.04 707.097ZM474.225 690.386L491.362 650.464C491.71 650.604 492.185 650.632 492.659 650.66L503.345 686.993L508.883 705.885L508.758 705.997C508.269 706.206 507.892 706.541 507.752 706.889L474.225 690.386ZM422.457 662.449L474.71 624.369L490.347 645.525C489.719 646.083 489.425 647.017 489.494 647.854L422.792 662.826C422.68 662.7 422.569 662.575 422.457 662.449ZM422.861 663.663L489.563 648.692C489.675 648.817 489.661 649.054 489.772 649.18C489.981 649.668 490.315 650.045 490.776 650.31L473.527 690.107L422.679 664.723C422.819 664.375 422.847 663.9 422.861 663.663ZM379.281 656.084C379.407 655.973 379.407 655.973 379.532 655.861C380.147 655.541 380.538 654.969 380.929 654.397L417.043 663.438C416.889 664.023 416.973 664.623 417.419 665.126C417.516 665.489 417.851 665.865 418.199 666.005L394.117 702.66C393.657 702.394 392.945 702.352 392.345 702.436L379.281 656.084ZM331.571 719.781L324.297 743.984L299.915 735.757C300.069 735.171 300.098 734.697 299.889 734.208L329.493 718.706C329.939 719.209 330.622 719.725 331.571 719.781ZM332.283 719.823C332.645 719.726 333.008 719.628 333.259 719.405C333.385 719.294 333.511 719.182 333.762 718.959L347.145 749.978C346.657 750.187 346.266 750.759 346 751.219L325.008 744.026L332.283 719.823ZM333.891 714.802L359.94 679.096L390.112 703.969C389.846 704.43 389.692 705.016 389.65 705.727L353.077 712.368L334.546 715.792C334.546 715.792 334.546 715.792 334.434 715.667C334.225 715.178 334.114 715.053 333.891 714.802ZM389.97 706.341C390.082 706.467 390.068 706.704 390.179 706.829C390.291 706.955 390.402 707.081 390.514 707.206L365.463 734.164L334.964 716.769C334.978 716.532 334.866 716.406 334.88 716.169L389.97 706.341ZM364.709 734.834L350.34 750.286C349.657 749.77 348.708 749.713 347.871 749.783L334.39 718.401C334.642 718.178 334.656 717.941 334.796 717.592L364.709 734.834ZM351.468 753.328L404.676 759.097C404.662 759.334 404.648 759.571 404.871 759.822L377.627 771.656L351.425 754.039C351.44 753.802 351.454 753.565 351.468 753.328ZM351.636 752.505C351.664 752.03 351.567 751.668 351.358 751.179C351.246 751.054 351.135 750.928 350.912 750.677L365.406 735.113L404.998 757.688C404.872 757.799 404.858 758.036 404.858 758.036L351.636 752.505ZM365.909 734.667L390.946 707.946C391.518 708.337 392.341 708.504 393.052 708.547L398.645 728.513L406.506 756.349C406.38 756.46 406.38 756.46 406.255 756.572C405.892 756.67 405.515 757.004 405.375 757.353L365.909 734.667ZM399.287 727.718L393.792 708.114C393.918 708.003 393.918 708.003 394.043 707.891C394.783 707.459 395.425 706.664 395.593 705.841L414.093 706.936L407.72 755.945C407.483 755.931 407.483 755.931 407.246 755.917L399.287 727.718ZM395.636 705.13C395.539 704.767 395.567 704.292 395.232 703.916C395.009 703.664 394.912 703.302 394.563 703.162L418.645 666.507C418.882 666.521 418.994 666.647 419.231 666.661L414.247 706.351L395.636 705.13ZM378.556 656.279L391.494 702.742C391.368 702.854 391.368 702.854 391.243 702.965C391.117 703.077 390.866 703.3 390.74 703.412L360.456 678.413L376.784 656.056C377.244 656.321 377.956 656.363 378.556 656.279ZM315.575 640.769L375.168 653.223C375.139 653.697 375.223 654.297 375.543 654.911C375.766 655.162 375.863 655.525 376.101 655.539L359.773 677.897L315.309 641.229C315.435 641.118 315.449 640.88 315.575 640.769ZM314.29 642.359C314.416 642.247 314.667 642.024 314.793 641.913L359.256 678.58L333.208 714.285C332.748 714.02 332.162 713.866 331.562 713.95L313.927 642.456C313.927 642.456 314.053 642.345 314.29 642.359ZM312.727 642.623C312.964 642.637 312.964 642.637 313.201 642.651L330.836 714.145C330.71 714.256 330.599 714.131 330.473 714.242C330.348 714.354 330.222 714.465 330.096 714.577L304.933 689.524L312.727 642.623ZM300.962 682.268C300.642 681.654 300.182 681.389 299.61 680.998L311.54 644.576L304.375 688.896L300.778 685.351C301.421 684.556 301.617 683.259 300.962 682.268ZM329.468 715.135C328.825 715.93 328.643 716.99 328.95 717.841L299.457 733.469C299.025 732.729 298.453 732.338 297.756 732.059L304.639 690.459L329.468 715.135ZM298.685 686.536C299.047 686.439 299.41 686.341 299.773 686.244C299.899 686.132 300.024 686.021 300.15 685.909L304.081 689.831L297.437 729.422L298.685 686.536ZM208.19 725.327L295.798 685.056C296.23 685.796 297.039 686.201 297.862 686.369L296.696 731.877C296.333 731.975 295.97 732.072 295.607 732.17C294.742 732.714 294.225 733.397 294.168 734.346L208.482 726.416C208.496 726.179 208.524 725.704 208.19 725.327ZM294 735.169C294.112 735.294 293.986 735.406 294.098 735.531L246.022 749.464L228.704 754.508C228.592 754.382 228.592 754.382 228.481 754.256C227.728 752.903 225.859 752.316 224.505 753.069L207.155 728.717C207.657 728.271 208.048 727.699 208.202 727.113L294 735.169ZM295.645 737.527L274.108 783.377L228.911 757.019C229.177 756.559 229.093 755.959 229.122 755.484L264.972 744.993L275.509 741.928L294.404 736.383C294.738 736.759 295.184 737.262 295.645 737.527ZM219.501 852.972L184.051 886.692L183.939 886.567L204.451 847.916C205.149 848.195 206.097 848.251 206.963 847.707C208.191 847.066 208.75 845.671 208.347 844.457L219.501 852.972ZM208.738 843.886L256.725 817.453L220.018 852.289L208.738 843.886ZM189.789 758.51L200.783 757.733L195.647 795.986C195.41 795.972 195.172 795.958 195.047 796.069L187.959 761.258C188.084 761.146 188.084 761.146 188.322 761.16C189.187 760.617 189.844 759.585 189.789 758.51ZM163.036 732.174L202.124 685.341C202.236 685.466 202.473 685.48 202.696 685.732L187.084 755.97C186.61 755.942 186.01 756.025 185.396 756.346C185.27 756.458 185.27 756.458 185.144 756.569L163.036 732.174ZM188.619 756.18L204.28 729.023C204.392 729.149 204.517 729.037 204.629 729.163L200.826 757.022L189.594 757.785C189.482 757.659 189.497 757.422 189.385 757.296C189.176 756.808 188.842 756.431 188.619 756.18ZM104.044 771.521C103.415 772.079 103.01 772.888 102.954 773.837L81.5768 777.093L79.9045 739.27C80.1417 739.284 80.393 739.061 80.6302 739.075L104.044 771.521ZM86.7636 745.984L107.281 771.118C106.472 770.713 105.635 770.782 104.784 771.089L86.7636 745.984ZM107.319 776.475C107.444 776.364 107.57 776.252 107.696 776.14L131.422 801.346C131.031 801.918 130.751 802.615 130.709 803.327L111.941 806.737L106.719 776.559C106.956 776.573 107.193 776.587 107.319 776.475ZM108.324 775.583C108.841 774.899 109.009 774.076 108.828 773.113L126.795 795.122L108.324 775.583ZM81.4956 738.532C81.747 738.308 81.8867 737.96 82.1381 737.737L141.519 753.748C141.365 754.334 141.56 755.059 141.768 755.548C142.089 756.162 142.772 756.678 143.358 756.832L133.99 800.189C133.516 800.161 132.916 800.244 132.301 800.565L132.176 800.676L81.4956 738.532ZM113.936 683.451L93.7787 714.15L78.4271 702.173C78.8323 701.364 79.0004 700.541 78.6941 699.69L113.504 682.711C113.601 683.074 113.713 683.199 113.936 683.451ZM93.1504 714.707L80.5926 733.718C80.2439 733.578 79.658 733.425 79.2952 733.522L76.1935 703.707C76.4307 703.721 76.682 703.498 76.9192 703.512C77.1705 703.289 77.2962 703.177 77.5475 702.954L93.1504 714.707ZM82.0706 734.877C81.8475 734.625 81.7502 734.263 81.4015 734.123L93.8336 715.224L141.827 752.576C141.701 752.688 141.687 752.925 141.687 752.925L82.3061 736.913C82.3486 736.202 82.391 735.49 82.0706 734.877ZM167.174 774.545L135.608 800.999C135.385 800.747 134.924 800.482 134.576 800.342L143.958 756.748C144.432 756.776 145.032 756.693 145.646 756.372C145.772 756.261 146.023 756.038 146.149 755.926L167.174 774.545ZM146.763 755.606C146.903 755.257 147.154 755.034 147.183 754.559L183.831 758.633C183.803 759.108 184.012 759.596 184.109 759.959L184.221 760.085L167.691 773.862L146.763 755.606ZM136.652 803.44L192.812 799.626C192.909 799.989 192.895 800.226 193.118 800.477C193.55 801.217 194.122 801.607 194.819 801.887L189.714 835.619L136.358 804.375C136.498 804.026 136.638 803.678 136.652 803.44ZM195.53 801.929L195.768 801.943L204.414 842.558C204.288 842.67 204.051 842.656 203.925 842.768C203.562 842.865 203.185 843.2 203.046 843.548L190.397 836.135L195.53 801.929ZM192.743 798.789L136.583 802.603C136.486 802.241 136.5 802.003 136.277 801.752L136.165 801.627L167.857 775.062L193.19 797.268C192.925 797.729 192.771 798.314 192.743 798.789ZM168.485 774.504L184.904 760.601C185.587 761.118 186.396 761.522 187.359 761.341L194.447 796.153C194.447 796.153 194.447 796.153 194.321 796.264C194.195 796.376 193.944 796.599 193.819 796.71L168.485 774.504ZM183.874 757.922L147.225 753.848C147.253 753.373 147.044 752.885 146.947 752.522C146.836 752.397 146.612 752.146 146.501 752.02L162.519 732.857L184.53 756.89C184.279 757.113 184.139 757.462 183.874 757.922ZM145.943 751.392C145.26 750.875 144.549 750.833 143.586 751.014L117.242 683.884C117.368 683.773 117.368 683.773 117.493 683.661L161.85 732.104L145.943 751.392ZM142.972 751.335C142.72 751.558 142.595 751.67 142.343 751.893L94.3504 714.54L114.507 683.841C115.079 684.232 115.791 684.274 116.516 684.079L142.972 751.335ZM112.974 681.609L27.2764 705.809C27.1649 705.683 27.1649 705.683 27.0534 705.557C27.0534 705.557 27.0534 705.557 26.9419 705.432L76.8789 666.262L112.919 680.534C113.017 680.897 112.877 681.246 112.974 681.609ZM111.718 682.724L78.1365 699.062C77.2586 697.82 75.6266 697.247 74.2727 698C73.4072 698.544 72.7507 699.576 72.6941 700.525L29.411 705.935L111.718 682.724ZM75.6077 703.553L78.6952 733.606C78.458 733.592 78.2067 733.815 78.0811 733.926C77.5926 734.135 77.3413 734.358 77.0758 734.819L62.7812 727.07L74.7705 703.623C75.1333 703.525 75.3705 703.539 75.6077 703.553ZM76.6847 735.391C76.4051 736.088 76.3486 737.037 76.892 737.902C77.0035 738.028 77.115 738.153 77.2266 738.279L34.4988 782.278C34.4988 782.278 34.4988 782.278 34.3873 782.153L62.3901 727.642L76.6847 735.391ZM35.1538 783.269C35.0423 783.143 34.9308 783.018 34.8192 782.892L77.5611 738.656C78.0213 738.921 78.4815 739.186 79.0674 739.34L80.9768 777.176L35.4742 783.883C35.4883 783.646 35.3768 783.52 35.1538 783.269ZM81.7715 777.818L103.26 774.688C103.246 774.925 103.357 775.051 103.58 775.302C103.678 775.665 104.012 776.041 104.361 776.181L84.2716 809.74C83.9229 809.6 83.6857 809.586 83.337 809.447L81.7715 777.818ZM85.3867 810.996C85.2893 810.633 84.9548 810.256 84.6061 810.117L104.696 776.558C105.156 776.823 105.63 776.851 106.104 776.879L111.341 806.821L85.5956 811.484C85.4841 811.359 85.4982 811.122 85.3867 810.996ZM112.135 807.463L130.903 804.052C131.015 804.178 131.001 804.415 131.112 804.54C131.321 805.029 131.544 805.28 132.004 805.545L117.752 833.024C117.403 832.884 116.929 832.856 116.692 832.842L112.135 807.463ZM119.216 834.419C119.007 833.931 118.784 833.68 118.323 833.415L131.766 807.554L121.193 839.178L118.92 837.377C119.688 836.47 119.759 835.285 119.216 834.419ZM133.162 806.09C133.748 806.244 134.348 806.16 134.836 805.951L180.368 886.593L180.353 886.83L180.228 886.942L122.113 839.708L133.162 806.09ZM135.451 805.63C135.702 805.407 135.827 805.296 136.079 805.073L189.783 836.456L182.419 886.12C181.944 886.092 181.582 886.189 181.219 886.287L135.451 805.63ZM190.355 836.847L202.892 844.134C202.486 844.943 202.555 845.78 202.973 846.757C203.182 847.246 203.405 847.497 203.865 847.762L198.109 858.488L183.242 886.287C183.242 886.287 183.13 886.162 183.005 886.273L190.355 836.847ZM205.376 842.377L196.73 801.762C196.856 801.65 197.093 801.664 197.219 801.553C197.833 801.232 198.35 800.549 198.504 799.963L214.671 804.252L205.851 842.406C205.614 842.392 205.502 842.266 205.376 842.377ZM198.672 799.14C198.7 798.666 198.617 798.066 198.296 797.452C198.073 797.2 197.976 796.838 197.627 796.698L224.669 758.315C224.78 758.44 224.906 758.329 225.017 758.454L214.602 803.415L198.672 799.14ZM223.428 757.17C223.651 757.421 223.748 757.784 224.097 757.924L196.818 796.293C196.707 796.167 196.47 796.153 196.358 796.028L201.509 757.538L223.136 756.082C223.345 756.57 223.442 756.933 223.428 757.17ZM201.663 756.952L205.326 729.442C205.801 729.47 206.163 729.372 206.652 729.163L224.114 753.641C223.486 754.199 223.206 754.896 223.164 755.607L201.663 756.952ZM203.533 685.662L205.08 723.596C204.717 723.694 204.48 723.68 204.228 723.903C202.874 724.656 202.287 726.525 203.039 727.878C203.262 728.13 203.36 728.492 203.708 728.632L187.921 755.901L203.533 685.662C203.422 685.536 203.533 685.662 203.533 685.662ZM118.806 681.597L200.717 682.996C200.814 683.359 200.912 683.722 201.009 684.085C201.121 684.21 201.344 684.461 201.455 684.587L162.478 731.546L118.121 683.103C118.498 682.769 118.652 682.183 118.806 681.597ZM108.288 644.441L114.944 678.512C114.818 678.624 114.581 678.61 114.456 678.721C113.967 678.93 113.702 679.391 113.325 679.725L77.7444 665.718L105.833 643.7C106.391 644.328 107.325 644.622 108.288 644.441ZM6.48637 637.341L104.997 641.747C104.969 642.221 105.178 642.71 105.275 643.072L76.8098 665.425L6.47222 637.579C6.59788 637.467 6.59789 637.467 6.48637 637.341ZM4.81042 639.503L4.93608 639.392C5.42457 639.183 5.81567 638.611 6.08113 638.151L76.07 665.857L26.5099 704.692C25.8408 703.938 24.9063 703.645 23.9435 703.826L4.81042 639.503ZM27.5685 706.897L72.8747 701.488C72.8606 701.725 73.0836 701.976 73.0695 702.213C73.2784 702.701 73.6129 703.078 73.9616 703.218L61.9723 726.665L27.2607 708.069C27.5261 707.608 27.5403 707.371 27.5685 706.897ZM25.2502 709.854C25.4873 709.868 25.7387 709.645 25.9758 709.659C26.4643 709.449 26.7156 709.226 26.9811 708.766L61.6927 727.363L33.6899 781.873C33.3412 781.734 33.1041 781.72 32.8669 781.706L25.2502 709.854ZM80.4061 810.701L35.3611 785.78C35.5009 785.432 35.6407 785.083 35.5433 784.72L80.8087 777.999L82.137 809.613C81.7742 809.711 81.537 809.697 81.2857 809.92C81.0344 810.143 80.7831 810.366 80.4061 810.701ZM85.4542 813.856C85.7197 813.396 85.748 812.921 85.7762 812.447L111.521 807.783L115.84 833.149C115.715 833.26 115.477 833.246 115.352 833.358C115.1 833.581 114.738 833.678 114.598 834.027L85.4542 813.856ZM116.338 838.771C116.812 838.799 117.412 838.716 118.027 838.395C118.152 838.284 118.403 838.06 118.529 837.949L120.913 839.875L106.565 882.937L116.338 838.771ZM106.184 887.318L121.834 840.406L179.837 887.514C179.697 887.863 179.431 888.323 179.403 888.797L107.955 889.564C107.857 889.202 107.76 888.839 107.662 888.476C107.216 887.974 106.645 887.583 106.184 887.318ZM107.675 890.262L179.123 889.495C179.221 889.857 179.207 890.095 179.43 890.346L142.508 914.816L107.381 891.196C107.633 890.973 107.772 890.625 107.675 890.262ZM119.519 927.14L106.236 892.438C106.488 892.215 106.85 892.117 106.99 891.768L141.893 915.136L122.448 927.908C121.654 927.266 120.607 926.847 119.519 927.14ZM169.071 934.358L123.158 929.973C123.186 929.499 123.089 929.136 122.755 928.759L142.451 915.764L169.224 933.772C169.21 934.009 169.085 934.121 169.071 934.358ZM170.495 932.419C170.244 932.642 169.881 932.74 169.741 933.089L143.191 915.332L179.373 891.294L172.058 932.155C171.584 932.127 170.984 932.21 170.495 932.419ZM174.039 932.867C173.704 932.49 173.355 932.351 173.007 932.211L180.448 891.239C181.354 892.007 182.651 892.203 183.754 891.673C184.856 891.143 185.401 889.985 185.235 888.785L245.031 873.881L174.039 932.867ZM184.929 887.934C184.817 887.809 184.817 887.809 184.831 887.572C184.72 887.446 184.72 887.446 184.608 887.32L220.185 853.488L245.687 872.849L184.929 887.934ZM246.19 872.403L220.687 853.042L257.394 818.206C257.617 818.458 257.966 818.597 258.203 818.611L246.19 872.403ZM256.405 816.839L207.929 843.481C207.594 843.104 207.148 842.601 206.562 842.448L215.257 804.406L256.253 815.402C256.224 815.876 256.196 816.35 256.405 816.839ZM256.421 814.579L215.425 803.583L225.729 758.496C226.203 758.525 226.678 758.553 227.166 758.344L257.329 813.323C256.952 813.658 256.56 814.23 256.421 814.579ZM258.054 813.128L227.892 758.148C228.143 757.925 228.269 757.814 228.52 757.591L273.829 784.074L260.077 813.129C259.38 812.85 258.668 812.808 258.054 813.128ZM304.089 803.478L261.89 814.664C261.778 814.539 261.778 814.539 261.792 814.302C261.583 813.813 261.249 813.436 260.789 813.171L274.415 784.228L304.314 801.706C304.16 802.292 304.006 802.878 304.089 803.478ZM305.585 800.354C305.222 800.451 304.845 800.786 304.705 801.134L274.694 783.53L296.356 737.569C296.593 737.583 296.942 737.723 297.179 737.737L298.761 749.136L306.199 800.033C305.947 800.256 305.822 800.368 305.585 800.354ZM306.91 800.075L299.681 749.666L297.891 737.779C298.016 737.668 298.254 737.682 298.379 737.57C298.868 737.361 299.259 736.789 299.524 736.329L324.017 744.681L307.385 800.103C307.273 799.978 307.147 800.089 306.91 800.075ZM308.208 800.271L324.84 744.849L345.832 752.042C345.678 752.628 345.747 753.465 346.068 754.079C346.179 754.205 346.402 754.456 346.514 754.581L308.556 800.411C308.431 800.522 308.319 800.396 308.208 800.271ZM309.114 801.039L347.071 755.21C347.992 755.74 349.052 755.922 350.155 755.392C350.406 755.169 350.769 755.071 350.909 754.723L376.887 772.088L309.448 801.415C309.225 801.164 309.225 801.164 309.114 801.039ZM428.454 807.391L311.248 801.165L377.585 772.368L428.733 806.694C428.593 807.043 428.468 807.154 428.454 807.391ZM429.124 806.122L378.31 772.173L405.065 760.548C405.706 761.776 407.227 762.223 408.441 761.819L429.627 805.676C429.501 805.787 429.376 805.899 429.124 806.122ZM431.915 805.216C431.441 805.188 430.967 805.16 430.367 805.243L409.181 761.386C410.423 760.508 410.996 758.876 410.244 757.522L410.132 757.397L463.66 711.895C463.883 712.146 464.12 712.16 464.343 712.411L431.915 805.216ZM462.991 711.141L463.103 711.267L409.575 756.769C409.24 756.392 408.892 756.252 408.306 756.098L414.679 707.09L462.476 709.801C462.685 710.29 462.782 710.653 462.991 711.141ZM462.756 709.104L414.958 706.393L420.054 666.829C420.529 666.857 420.891 666.759 421.268 666.425C421.394 666.313 421.645 666.09 421.771 665.979L463.189 707.821C463.049 708.169 462.784 708.63 462.756 709.104ZM464.18 707.165C464.054 707.277 463.929 707.388 463.803 707.5L422.385 665.658L422.511 665.546L473.359 690.93L466.454 706.943C465.757 706.664 464.92 706.733 464.18 707.165ZM510.532 720.144C510.169 720.242 509.932 720.228 509.681 720.451C509.067 720.771 508.676 721.343 508.41 721.804L468.531 710.041C468.531 710.041 468.531 710.041 468.545 709.804L507.276 708.884C507.374 709.247 507.471 709.61 507.694 709.861C508.238 710.726 509.158 711.257 510.107 711.313L510.532 720.144ZM511.369 720.075L510.692 711.467C511.055 711.369 511.292 711.383 511.544 711.16C512.284 710.728 512.675 710.156 512.954 709.458L521.785 711.052L512.764 720.633C512.43 720.257 511.844 720.103 511.369 720.075ZM551.331 716.491L513.865 722.127C513.879 721.889 513.768 721.764 513.545 721.513C513.433 721.387 513.322 721.261 513.21 721.136L522.37 711.206L551.331 716.491C551.456 716.379 551.456 716.379 551.331 716.491ZM553.035 713.855C552.295 714.287 551.904 714.859 551.624 715.556L523.236 710.662L571.048 659.229C571.159 659.354 571.397 659.368 571.508 659.494L554.835 713.604C554.249 713.451 553.649 713.534 553.035 713.855ZM605.684 667.111C605.796 667.236 605.796 667.236 605.907 667.362L556.229 714.163L556.118 714.037L584.441 660.141L605.435 665.311C605.281 665.897 605.364 666.497 605.684 667.111ZM607.613 662.703C607.376 662.689 607.125 662.912 606.762 663.01C606.148 663.33 605.757 663.902 605.477 664.599L584.721 659.443L603.529 623.428C603.877 623.568 604.226 623.708 604.463 623.722L607.613 662.703ZM602.176 622.158C602.288 622.284 602.288 622.284 602.399 622.41L574.317 654.305C573.968 654.166 573.508 653.9 573.159 653.761L574.697 613.986L601.829 619.996C601.773 620.944 601.856 621.544 602.176 622.158ZM602.737 618.741C602.486 618.964 602.346 619.312 602.095 619.536L574.851 613.4L575.891 585.972C576.254 585.875 576.617 585.777 576.868 585.554C576.994 585.443 577.12 585.331 577.12 585.331L602.737 618.741ZM605.988 618.1C605.179 617.695 604.105 617.751 603.365 618.183L577.86 584.899C578.111 584.676 578.125 584.439 578.265 584.09L617.755 594.401C617.321 595.685 618.073 597.038 619.105 597.695L605.988 618.1ZM607.243 619.007L607.341 619.37C607.118 619.119 607.02 618.756 606.672 618.617L619.677 598.085C621.086 598.407 622.677 597.668 623.236 596.273C623.362 596.162 623.25 596.036 623.25 596.036L630.518 597.894L644.578 601.583C644.564 601.82 644.564 601.82 644.55 602.057C644.536 602.294 644.536 602.294 644.522 602.532L607.243 619.007ZM686.031 565.005L649.589 599.381C649.366 599.129 649.017 598.99 648.78 598.976C648.431 598.836 648.083 598.696 647.72 598.794L645.876 583.81L686.031 565.005ZM685.599 564.265L645.681 583.084L642.298 555.989C643.15 555.683 644.015 555.139 644.309 554.204L685.53 563.428C685.516 563.665 685.501 563.903 685.599 564.265ZM686.243 561.447C685.991 561.671 685.852 562.019 685.712 562.368C685.586 562.48 685.698 562.605 685.572 562.717L644.589 553.507C644.728 553.158 644.631 552.795 644.534 552.433L669.573 539.635L686.243 561.447ZM713.031 525.31L690.094 560.723C689.983 560.598 689.745 560.584 689.634 560.458C688.699 560.165 687.625 560.22 686.997 560.778L670.313 539.203L719.653 514.04C719.765 514.166 719.876 514.291 720.099 514.543L713.031 525.31ZM719.096 513.412L669.756 538.575L645.351 506.784C645.602 506.561 645.868 506.101 646.008 505.752C646.133 505.641 646.147 505.403 646.147 505.403L718.789 512.561C718.775 512.798 718.873 513.161 719.096 513.412ZM719.419 509.98C719.168 510.203 719.028 510.552 718.888 510.901C718.749 511.25 718.734 511.487 718.72 511.724L646.078 504.566C646.107 504.092 646.009 503.729 645.675 503.352L692.368 472.678L719.419 509.98ZM720.662 509.102C720.536 509.213 720.173 509.311 720.048 509.422L693.108 472.246L708.714 461.984C709.049 462.36 709.397 462.5 709.858 462.765C710.318 463.031 710.792 463.059 711.155 462.961L720.662 509.102ZM708.298 458.984C707.893 459.793 708.073 460.756 708.394 461.37L692.662 471.743L660.12 426.738C660.245 426.626 660.245 426.626 660.371 426.515L676.965 437.612L708.312 458.747C708.424 458.872 708.424 458.872 708.298 458.984ZM709.946 457.297C709.583 457.394 709.206 457.729 708.829 458.063L677.245 436.915L660.888 425.831C660.888 425.831 661.013 425.72 660.902 425.594C661.167 425.134 661.196 424.659 661.098 424.297L697.547 415.745L709.946 457.297ZM698.399 415.438L753.924 402.304C754.021 402.667 754.244 402.918 754.579 403.295L712.666 457.577C712.555 457.451 712.317 457.437 712.206 457.311C711.746 457.046 711.146 457.13 710.671 457.102L698.399 415.438ZM739.726 466.795L714.045 460.395C714.102 459.447 713.795 458.595 713.238 457.967L755.151 403.686C755.262 403.811 755.388 403.7 755.499 403.825L739.726 466.795ZM753.729 401.578L698.204 414.713L693.139 397.871C693.753 397.551 694.381 396.993 694.661 396.296C694.786 396.184 694.801 395.947 694.801 395.947L753.729 401.578C753.618 401.453 753.729 401.578 753.729 401.578ZM753.94 400.044C753.926 400.281 753.8 400.393 753.786 400.63L695.094 395.012C695.123 394.538 694.914 394.05 694.816 393.687L733.528 365.158L754.959 398.914C754.345 399.235 753.968 399.569 753.94 400.044ZM755.824 398.37C755.587 398.356 755.462 398.468 755.21 398.691L733.779 364.934L748.842 353.807C749.065 354.058 749.525 354.324 749.874 354.463C750.223 354.603 750.571 354.743 750.934 354.645L755.824 398.37ZM793.02 381.295C792.74 381.992 792.698 382.704 793.018 383.318L759.325 399.53C759.005 398.916 758.545 398.65 757.848 398.371C757.499 398.231 757.024 398.203 756.787 398.189L751.897 354.464C752.497 354.381 752.999 353.934 753.376 353.6L793.271 381.072C793.034 381.057 792.908 381.169 793.02 381.295ZM793.551 380.374L753.656 352.902C753.782 352.791 753.782 352.791 753.796 352.554C753.81 352.316 753.95 351.968 753.964 351.731L793.364 351.565L795.156 379.398C794.43 379.593 793.816 379.914 793.551 380.374ZM852.129 351.95L798.057 380.641C797.722 380.264 797.276 379.762 796.691 379.608C796.342 379.468 796.105 379.454 795.868 379.44L794.076 351.607L851.935 351.225C852.032 351.588 852.018 351.825 852.129 351.95ZM852.131 349.927C852.117 350.165 851.977 350.513 851.852 350.625L793.993 351.007L791.168 306.571C791.768 306.487 792.382 306.167 792.647 305.707L852.159 349.453C852.271 349.579 852.145 349.69 852.131 349.927ZM853.039 348.672C852.913 348.784 852.788 348.895 852.662 349.007L793.15 305.26C793.275 305.149 793.164 305.023 793.29 304.912C793.415 304.8 793.429 304.563 793.429 304.563L828.823 307.73L853.039 348.672ZM852.692 346.51L829.786 307.549L834.878 307.969C834.933 309.043 835.699 310.16 836.745 310.579C837.331 310.732 837.917 310.886 838.643 310.691L852.692 346.51ZM835.842 305.765C835.591 305.988 835.326 306.449 835.186 306.797C835.06 306.909 835.046 307.146 835.046 307.146L829.479 306.697L809.179 271.937L835.842 305.765ZM838.745 304.985C837.81 304.692 836.973 304.761 836.345 305.319L808.135 269.495C808.386 269.272 808.651 268.812 808.791 268.463C809.085 267.528 809.016 266.691 808.584 265.952L879.805 217.094C880.028 217.345 880.251 217.597 880.711 217.862L838.745 304.985ZM879.373 216.355L808.026 265.324C807.915 265.198 807.803 265.072 807.803 265.072L835.865 223.536L846.048 208.431C846.048 208.431 846.16 208.557 846.286 208.445C847.792 209.129 849.509 208.279 850.068 206.884L879.124 214.555C878.97 215.141 879.053 215.741 879.373 216.355ZM879.403 213.857L850.347 206.187C850.39 205.475 850.321 204.638 849.763 204.01L865.527 189.116L880.422 212.728C879.934 212.937 879.669 213.397 879.403 213.857ZM909.78 245.287L884.214 216.998C884.465 216.775 884.605 216.426 884.745 216.078C885.43 214.571 884.58 212.855 883.074 212.171C882.725 212.031 882.376 211.891 882.014 211.989L876.722 180.973L909.78 245.287ZM911.119 244.772C910.882 244.758 910.757 244.869 910.519 244.855L877.574 180.667C877.951 180.332 878.453 179.886 878.607 179.3C878.733 179.188 878.621 179.063 878.747 178.951L911.21 183.372L911.119 244.772ZM977.696 193.973L913.574 245.512C913.351 245.261 913.003 245.121 912.542 244.856C912.305 244.842 912.194 244.716 911.845 244.577L911.907 183.652L977.307 192.522C977.278 192.997 977.487 193.485 977.696 193.973ZM977.377 191.337C977.252 191.448 977.363 191.574 977.238 191.685L911.838 182.815L911.914 157.591C912.751 157.521 913.491 157.089 914.007 156.406L977.377 191.337C977.503 191.225 977.503 191.225 977.377 191.337ZM977.894 190.653L914.287 155.708C914.427 155.359 914.441 155.122 914.455 154.885L975.511 152.788L979.514 189.44C979.025 189.649 978.285 190.081 977.894 190.653ZM1009.71 215.862L982.817 193.92C982.942 193.808 982.956 193.571 983.082 193.459C983.236 192.873 983.264 192.399 983.293 191.925L1019.83 179.927L1012.27 214.942C1011.32 214.886 1010.34 215.304 1009.71 215.862ZM1092.89 156.169L1014.11 216.003C1013.77 215.626 1013.42 215.486 1012.96 215.221L1020.55 179.732L1092.77 156.043C1092.9 155.931 1092.77 156.043 1092.89 156.169ZM1092.8 153.546C1092.65 154.132 1092.62 154.606 1092.7 155.206L1020.85 178.797L1034.05 116.984C1035 117.041 1035.85 116.734 1036.5 115.939L1092.82 153.309C1092.69 153.42 1092.69 153.42 1092.8 153.546Z" fill="url(#paint0_linear_38_114)" fill-opacity="0.3"/>
<defs>
<linearGradient id="paint0_linear_38_114" x1="252.874" y1="699.836" x2="876.112" y2="146.505" gradientUnits="userSpaceOnUse">
<stop stop-color="#202932"/>
<stop offset="0.1801" stop-color="#425667"/>
<stop offset="0.486" stop-color="#DA2A2A"/>
<stop offset="0.784108" stop-color="#425667"/>
<stop offset="0.810151" stop-color="#425667"/>
<stop offset="0.9994" stop-color="#425667"/>
</linearGradient>
</defs>
</svg>
